<svg width="757" height="1148" viewBox="0 0 757 1148" fill="none" xmlns="http://www.w3.org/2000/svg">
  <mask id="mask0_605_1012" style="mask-type:luminance" maskUnits="userSpaceOnUse" x="3" y="165" width="727"
    height="980">
    <path
      d="M722.457 560.049C722.457 560.049 725.284 604.988 728.817 633.535C732.35 662.082 723.87 701.368 711.01 723.556C711.01 723.556 713.13 763.549 700.27 800.716C687.41 837.883 639.644 927.762 607.423 977.083C575.202 1026.4 568.136 1043.5 555.276 1082.79C542.416 1122.08 520.229 1145.68 452.396 1144.97C384.562 1144.26 349.515 1139.32 304.576 1084.34C259.636 1029.37 168.909 935.111 138.949 880.137C108.99 825.164 110.403 765.951 110.403 765.951C110.403 765.951 71.5399 783.475 42.5694 734.154C13.599 684.834 3 664.484 3 601.314C3 538.144 4.13056 493.205 45.8198 496.314C50.0594 388.204 97.26 217.773 313.62 173.964C529.98 130.155 743.514 247.026 722.457 560.049Z"
      fill="white" />
  </mask>
  <g mask="url(#mask0_605_1012)">
    <path
      d="M722.457 560.049C722.457 560.049 725.284 604.988 728.817 633.535C732.35 662.082 723.87 701.368 711.01 723.556C711.01 723.556 713.13 763.549 700.27 800.716C687.41 837.883 639.644 927.762 607.423 977.083C575.202 1026.4 568.136 1043.5 555.276 1082.79C542.416 1122.08 520.229 1145.68 452.396 1144.97C384.562 1144.26 349.515 1139.32 304.576 1084.34C259.636 1029.37 168.909 935.111 138.949 880.137C108.99 825.164 110.403 765.951 110.403 765.951C110.403 765.951 71.5399 783.475 42.5694 734.154C13.599 684.834 3 664.484 3 601.314C3 538.144 4.13056 493.205 45.8198 496.314C50.0594 388.204 97.26 217.773 313.62 173.964C529.98 130.155 743.514 247.026 722.457 560.049Z"
      fill="#F4A571" />
  </g>
  <mask id="mask1_605_1012" style="mask-type:luminance" maskUnits="userSpaceOnUse" x="3" y="165" width="727"
    height="980">
    <path
      d="M722.457 560.049C722.457 560.049 725.284 604.988 728.817 633.535C732.35 662.082 723.87 701.368 711.01 723.556C711.01 723.556 713.13 763.549 700.27 800.716C687.41 837.883 639.644 927.762 607.423 977.083C575.202 1026.4 568.136 1043.5 555.276 1082.79C542.416 1122.08 520.229 1145.68 452.396 1144.97C384.562 1144.26 349.515 1139.32 304.576 1084.34C259.636 1029.37 168.909 935.111 138.949 880.137C108.99 825.164 110.403 765.951 110.403 765.951C110.403 765.951 71.5399 783.475 42.5694 734.154C13.599 684.834 3 664.484 3 601.314C3 538.144 4.13056 493.205 45.8198 496.314C50.0594 388.204 97.26 217.773 313.62 173.964C529.98 130.155 743.514 247.026 722.457 560.049Z"
      fill="white" />
  </mask>
  <g mask="url(#mask1_605_1012)">
    <path
      d="M410.283 831.806C425.121 835.622 439.96 839.296 454.657 843.112C461.158 844.808 468.224 846.362 474.583 843.96C483.345 840.709 487.726 830.534 487.443 821.207C487.161 811.88 483.345 803.118 480.095 794.498C469.778 767.788 463.984 739.383 462.571 710.837C462.147 703.347 458.897 675.224 465.68 671.55C469.072 669.713 475.007 676.496 480.236 673.67C484.617 671.409 486.454 665.191 486.313 660.527C486.03 654.874 483.769 649.645 481.932 644.417C469.637 610.217 476.42 571.637 490.976 538.286C505.532 504.934 527.154 475.257 546.091 444.308C556.124 427.915 565.734 409.544 563.614 390.466C561.212 370.116 545.384 353.299 527.154 344.113C508.782 334.927 488.008 332.101 467.8 329.416C429.22 324.187 390.781 319.099 352.201 313.87C331.003 311.044 308.533 308.359 289.031 317.121C249.603 334.927 238.297 392.161 197.456 406.152C190.955 408.413 183.889 409.402 178.378 413.359C172.866 417.316 169.474 423.534 166.789 429.611C157.18 450.668 151.386 473.137 146.439 495.749C131.459 564.712 124.252 635.372 124.959 705.891C117.045 678.192 106.163 651.483 92.4553 626.045C90.6182 646.112 90.9008 666.886 98.3907 685.682C104.891 702.075 116.762 713.098 124.959 727.936C134.851 745.601 141.634 765.245 148.135 784.323C161.137 822.196 171.453 861.201 189.542 897.096C204.098 925.925 223.317 951.928 242.395 977.931C266.844 1011 291.009 1044.07 319.556 1073.75C326.056 1080.53 332.557 1087.17 339.764 1093.11C361.952 1111.19 390.781 1121.09 419.327 1120.24C395.586 1111.9 371.703 1099.75 358.277 1078.55C353.755 1071.48 350.646 1063.71 347.537 1055.94C339.199 1034.88 330.72 1013.83 322.382 992.769C325.491 1000.4 342.026 1009.87 347.961 1016.23C355.31 1024 361.81 1032.62 368.594 1040.82C383.149 1058.62 400.532 1072.05 425.121 1070.07C397.847 1055.66 385.552 1024 375.377 994.889C394.314 1005.21 413.533 1015.8 434.59 1020.33C455.646 1024.85 479.247 1022.73 496.346 1009.59C468.224 1022.59 430.774 1008.88 417.631 980.898C466.387 972.419 512.457 949.808 549.059 916.457C532.524 921.544 514.011 923.098 496.77 924.794C482.073 926.349 466.669 926.49 453.103 920.837C444.482 917.304 436.851 911.51 428.796 906.705C415.653 899.074 400.956 893.987 385.976 892.008C405.902 887.203 427.1 887.062 447.026 891.584C423.567 880.137 404.489 860.07 394.031 836.187C405.478 836.752 416.925 839.155 427.524 843.394C440.949 848.765 453.244 856.82 467.093 861.059C489.28 867.843 514.294 863.603 533.372 850.602C552.45 837.6 565.452 816.12 568.843 793.085C569.409 803.684 569.974 814.565 574.779 824.175C579.442 833.643 589.335 841.557 599.934 840.427C597.107 829.545 589.617 820.501 582.551 811.88C569.832 796.618 557.255 781.355 544.536 766.093C559.94 779.801 579.442 784.04 596.401 795.77C613.359 807.499 629.187 823.892 631.589 844.384C634.698 869.68 617.316 892.291 601.064 911.793C604.456 899.357 607.847 886.779 611.098 874.343C598.238 885.649 592.444 902.89 589.476 919.707C586.508 936.524 586.084 953.765 581.562 970.299C595.835 952.21 605.728 932.143 618.164 912.924C630.317 894.128 626.502 876.887 633.285 856.113C639.927 835.622 660.418 822.338 668.756 802.412C674.409 788.704 673.702 773.3 672.572 758.461C671.865 749.841 671.017 740.796 666.212 733.448C660.701 724.827 650.526 720.164 640.492 718.751C630.317 717.337 620.142 718.751 609.967 720.305C606.576 720.87 602.76 721.577 600.781 724.403C598.238 728.219 600.499 733.165 602.619 737.122C610.956 751.961 619.294 766.94 627.491 781.779C607.565 783.334 587.215 778.246 570.256 767.506C582.693 779.235 593.291 792.661 601.629 807.499C583.54 796.335 566.158 784.04 549.482 770.756C542.134 764.962 534.927 758.744 530.122 750.689C525.882 743.481 523.762 735.144 522.349 726.947C518.392 704.76 518.251 682.008 521.784 659.82C534.079 670.561 549.765 680.029 565.31 684.693C561.212 679.464 557.255 674.235 553.157 669.006C580.007 688.791 618.729 691.052 647.699 674.376C623.958 681.442 597.531 678.899 575.627 667.452C580.997 675.931 588.063 683.279 596.401 688.932C572.094 676.637 548.211 663.212 524.893 648.797C542.134 622.512 572.235 605.13 603.608 603.151C634.981 601.173 666.919 614.881 687.41 638.764C689.247 624.067 679.072 609.793 665.93 603.01C652.646 596.227 637.101 595.803 622.403 597.499C589.476 601.032 557.82 614.316 532.1 635.231C551.885 594.248 594.987 564.712 640.351 564.147C685.856 563.582 730.937 593.542 745.069 636.785C752.841 660.81 751.428 686.671 749.308 711.967C746.34 746.591 742.383 781.355 733.056 814.848C706.912 909.532 640.916 988.388 607.847 1080.81C602.195 1096.5 597.39 1112.89 586.508 1125.47C575.627 1138.05 556.831 1145.54 542.134 1137.9C542.134 1098.48 548.493 1059.05 561.071 1021.74C543.123 1039.26 532.383 1063.99 531.676 1089.15C542.275 1065.97 554.711 1043.64 568.843 1022.59C557.962 1043.08 556.548 1067.1 552.026 1089.86C547.504 1112.61 538.036 1136.63 517.827 1148.08C503.13 1156.28 485.465 1156.42 468.506 1155.99C435.579 1155.29 402.793 1153.59 369.865 1151.05C336.09 1148.36 301.608 1144.55 271.366 1129.28C246.917 1116.85 226.567 1097.49 208.055 1077.28C137.678 1000.54 86.6612 906.14 60.9411 805.238C54.0164 777.822 43.4175 755.918 36.4928 728.36C41.7216 737.97 49.4942 746.308 58.8213 752.243C62.213 754.363 66.4525 756.2 69.9855 754.646C74.9317 752.526 75.3557 745.884 76.0623 740.655C77.8994 727.936 85.672 716.207 96.8362 709.706C87.5091 714.37 77.0515 706.456 68.9963 699.814C60.7998 693.313 47.3744 688.367 41.1564 696.705C38.8953 699.673 38.4713 703.629 38.1887 707.304C37.4821 722.566 40.7324 737.829 47.6571 751.395C34.797 735.285 21.7956 718.892 13.5991 699.955C5.40254 681.018 2.43483 658.972 10.3487 639.753C16.5668 624.491 28.8616 612.62 38.0473 598.912C47.2331 585.204 53.1685 566.832 45.2546 552.418C15.4362 591.704 2.1522 643.145 9.07685 692.041C-28.6554 631.698 -15.7954 554.113 -1.80474 484.302C6.53311 443.036 15.0123 401.347 34.0904 363.898C81.1498 271.333 185.726 220.034 288.748 206.326C391.77 192.618 495.922 209.859 599.227 220.034C634.981 223.567 670.876 226.252 706.064 233.036C729.099 237.558 753.972 245.472 766.125 265.681C773.898 278.823 774.887 294.792 775.311 309.913C778.137 410.392 770.506 511.011 752.417 609.935C736.024 568.811 686.28 547.471 642.753 555.668C599.368 563.723 563.332 596.085 541.286 634.383C518.392 674.235 510.196 728.926 540.438 763.549C546.797 770.897 554.711 777.116 558.81 785.877C568.843 807.499 551.178 832.089 531.959 846.221C523.056 852.721 513.305 858.516 502.564 861.201C470.768 868.691 436.71 851.026 410.283 831.806Z"
      fill="#F09965" />
    <path
      d="M224.73 613.185C214.979 625.621 205.228 638.199 195.477 650.635C221.763 647.102 244.939 670.843 271.507 670.419C267.55 664.201 262.321 658.831 256.245 654.592C282.671 664.484 310.087 671.409 337.927 675.083C317.012 677.344 295.673 675.79 275.323 670.561C281.258 675.083 287.335 679.746 293.27 684.269C276.029 678.333 258.506 672.398 240.417 671.974C222.187 671.55 202.967 677.768 191.944 692.183C206.359 689.074 220.915 685.823 235.329 682.714C218.371 690.345 204.804 705.467 199.152 723.273C214.697 705.467 243.95 704.619 263.735 717.196C270.518 721.577 276.595 727.23 283.661 731.045C295.955 737.687 310.653 738.394 324.502 737.263C346.265 735.426 367.746 729.491 387.248 719.74C396.292 715.218 405.761 709.848 415.653 711.261C425.545 712.674 433.883 725.675 426.959 733.024C436.992 717.761 446.885 701.651 448.58 683.562C450.135 666.321 444.058 649.504 441.938 632.263C440.667 622.229 440.667 612.054 438.264 602.303C433.459 583.508 419.186 568.245 402.652 558.07C386.117 547.895 367.322 542.243 348.668 537.155C328.318 531.502 307.685 526.415 286.628 525.567C265.572 524.719 243.809 528.393 225.861 539.275C196.467 557.223 184.454 585.91 171.453 616.153C169.757 620.675 216.675 623.501 224.73 613.185Z"
      fill="#F09965" />
    <path
      d="M407.032 801.988C403.641 810.326 407.456 819.935 413.109 826.86C418.762 833.785 426.393 838.872 432.187 845.656C442.786 857.809 447.309 873.919 451.548 889.465C431.481 883.67 419.186 862.897 400.108 854.417C387.106 848.623 371.703 849.047 358.277 853.711C344.711 858.374 332.84 866.853 322.382 876.463C334.112 883.953 346.972 889.465 360.538 892.998C363.223 926.914 385.411 955.885 406.609 982.453C376.084 965.918 346.689 947.123 318.849 926.349C314.61 923.24 308.25 920.131 304.859 924.088C302.597 926.632 303.445 930.589 304.293 933.839C308.957 951.645 313.762 969.31 318.425 987.116C310.794 974.68 303.163 962.385 295.39 949.949C288.042 937.937 280.552 925.925 275.181 912.924C266.844 892.715 264.017 870.245 266.844 848.482C254.266 854.983 249.744 870.81 249.744 884.942C249.744 899.074 252.994 913.348 250.451 927.197C241.406 910.662 232.927 893.845 225.154 876.746C220.915 867.56 216.958 857.95 217.382 848.058C218.371 827.143 238.297 812.445 257.375 803.825C289.879 789.269 325.35 783.051 358.419 769.908C371.137 764.962 383.573 758.885 396.999 756.766C410.424 754.646 425.545 757.331 434.731 767.506C443.634 777.257 445.754 792.378 445.471 805.097C437.134 795.204 414.664 783.334 407.032 801.988Z"
      fill="#F09965" />
  </g>
  <mask id="mask2_605_1012" style="mask-type:luminance" maskUnits="userSpaceOnUse" x="3" y="165" width="727"
    height="980">
    <path
      d="M722.457 560.049C722.457 560.049 725.284 604.988 728.817 633.535C732.35 662.082 723.87 701.368 711.01 723.556C711.01 723.556 713.13 763.549 700.27 800.716C687.41 837.883 639.644 927.762 607.423 977.083C575.202 1026.4 568.136 1043.5 555.276 1082.79C542.416 1122.08 520.229 1145.68 452.396 1144.97C384.562 1144.26 349.515 1139.32 304.576 1084.34C259.636 1029.37 168.909 935.111 138.949 880.137C108.99 825.164 110.403 765.951 110.403 765.951C110.403 765.951 71.5399 783.475 42.5694 734.154C13.599 684.834 3 664.484 3 601.314C3 538.144 4.13056 493.205 45.8198 496.314C50.0594 388.204 97.26 217.773 313.62 173.964C529.98 130.155 743.514 247.026 722.457 560.049Z"
      fill="white" />
  </mask>
  <g mask="url(#mask2_605_1012)">
    <path
      d="M307.967 721.294C337.503 726.523 364.636 706.032 391.346 692.183C399.118 688.084 407.598 684.269 412.968 677.344C418.479 670.419 419.61 659.114 412.826 653.461C422.436 660.244 428.513 671.833 428.23 683.703C440.384 670.561 437.416 648.374 426.252 634.383C414.946 620.392 397.705 612.902 380.747 607.108C356.723 598.912 331.568 593.118 306.272 594.531C280.975 595.944 255.397 605.412 238.297 624.067C231.514 631.415 225.296 640.601 215.686 643.286C221.056 647.95 229.535 647.243 235.894 643.993C242.254 640.742 247.2 635.372 252.712 630.85C272.072 614.739 298.64 608.38 323.654 611.63C348.667 614.881 371.985 627.176 390.639 644.134C372.974 632.263 353.755 622.088 332.981 617.566C312.207 613.044 289.596 614.316 270.659 624.067C255.821 631.698 243.526 644.275 227.839 650.069C238.58 657.842 251.298 663.071 264.441 665.049C259.212 659.679 254.125 654.309 248.896 648.939C270.518 648.939 291.009 657.277 311.642 663.495C332.274 669.713 354.885 674.094 375.094 666.462C348.243 680.453 315.74 683.138 286.911 673.811C302.032 686.671 321.675 694.02 341.46 694.161C324.219 696.563 306.272 694.585 289.879 688.65C275.747 683.421 262.463 675.224 247.483 673.528C232.503 671.833 216.816 677.203 206.076 687.802C221.197 678.475 240.982 677.061 257.234 684.127C239.286 676.355 211.729 703.347 203.108 716.207C211.729 703.064 243.808 696.422 257.658 700.52C275.04 705.608 289.737 718.044 307.967 721.294Z"
      fill="#E68253" />
    <path
      d="M89.6292 721.012C102.631 722.142 117.186 726.806 122.274 738.818C126.372 748.569 122.698 759.733 120.296 770.05C112.806 800.575 115.491 832.654 120.578 863.603C119.589 835.48 103.337 808.206 79.1716 793.933C68.9966 787.856 57.4084 783.899 48.5052 776.126C33.9493 763.125 29.2858 742.21 26.1768 723.838C33.5254 743.481 42.7111 761.994 65.8875 763.407C77.7584 764.114 94.4341 762.56 102.207 752.526C110.121 742.21 104.326 722.284 89.6292 721.012Z"
      fill="#E68253" />
    <path
      d="M593.009 549.732C611.38 540.971 637.948 538.427 652.646 523.588C661.69 514.544 663.951 500.977 665.364 488.259C667.484 468.898 668.473 449.254 668.332 429.752C668.049 402.902 665.082 373.648 646.428 352.592C625.371 328.85 581.279 327.72 551.602 323.056C479.953 312.033 408.446 301.01 336.797 289.987C308.533 285.607 276.453 282.215 254.125 300.162C235.612 315.142 229.677 340.297 221.056 362.626C212.436 384.813 195.477 408.272 171.594 408.13C172.442 402.478 173.29 396.684 174.138 391.031C160.43 399.369 155.343 416.468 151.668 432.155C131.318 519.49 121.85 609.369 123.404 699.107C111.392 669.995 99.2387 641.025 87.2266 611.913C82.563 641.166 83.6936 671.267 90.7595 699.955C77.0516 708.717 65.1807 679.04 49.0703 681.442C40.1672 682.714 36.3515 696.139 43.1349 701.933C22.7849 688.932 11.1967 663.495 14.7297 639.612C18.2627 615.729 36.7755 594.672 59.9519 588.171C54.7231 566.973 45.1133 546.906 31.8293 529.665C45.1133 573.898 -3.92449 615.022 -1.8047 661.092C-8.58803 609.369 -15.3714 556.233 -2.36999 505.782C6.67445 470.735 24.7633 438.797 43.1349 407.565C95.9883 317.827 156.473 226.676 248.189 177.215C340.188 127.47 451.831 127.046 554.146 149.233C621.697 163.789 692.78 192.053 726.556 252.255C764.147 318.958 744.362 401.347 746.34 477.801C747.33 517.936 754.537 557.788 756.091 597.922C757.505 638.057 752.7 679.888 731.502 714.087C724.295 725.675 727.262 741.079 725.284 754.646C716.098 817.109 685.29 874.06 653.07 928.327C620.849 982.594 586.225 1036.44 567.854 1096.92C564.604 1107.66 561.777 1118.68 555.7 1128.01C539.025 1153.45 499.455 1170.41 470.344 1174.51C445.471 1177.9 420.175 1174.22 395.303 1170.55C358.56 1165.04 321.252 1159.53 287.476 1143.7C303.163 1142 315.457 1139.74 331.285 1140.59C307.544 1111.19 297.51 1072.05 271.79 1044.49C312.066 1068.09 339.623 1112.18 383.997 1126.88C406.891 1134.37 431.622 1133.1 455.646 1131.69C484.899 1129.99 513.87 1128.29 530.546 1100.88C537.894 1088.72 541.992 1074.88 546.797 1061.45C567.854 1001.67 607.706 953.765 628.621 893.845C637.807 867.56 651.232 847.351 668.615 825.729C697.161 790.258 705.64 748.145 684.019 706.738C679.638 698.259 668.756 696.705 659.57 698.825C650.384 700.944 642.047 706.314 633.144 709.423C613.5 716.207 590.465 711.967 574.779 698.542C587.639 698.824 600.499 697.553 613.359 696.281C625.795 695.009 638.09 693.878 650.526 692.606C665.364 691.193 680.486 689.639 693.77 683.138C676.387 681.301 658.722 682.573 641.764 686.671C652.363 682.997 661.549 675.507 667.343 665.897C630.741 675.648 591.313 674.376 555.418 662.223C570.963 678.757 593.009 689.073 615.62 690.487C596.966 692.324 577.888 689.073 560.929 681.301C556.972 679.464 551.32 677.768 548.917 681.442C548.069 682.714 547.928 684.269 547.787 685.823C547.787 716.489 559.799 742.775 583.823 762.136C571.67 760.581 563.332 753.515 549.765 754.646C562.625 769.202 578.17 780.931 592.302 793.932C606.575 807.075 619.86 822.055 626.219 840.285C627.773 844.525 628.763 849.047 628.621 853.569C628.197 865.581 619.012 875.332 613.924 886.214C623.251 873.778 624.382 855.83 616.75 842.405C613.217 836.187 608.271 831.099 603.325 826.153C592.726 815.554 582.693 803.825 571.387 794.074C570.822 812.587 564.886 833.784 581.421 847.492C585.943 851.167 591.596 855.548 590.606 861.2C589.758 866.147 584.247 868.69 579.442 870.245C553.439 879.007 526.871 886.355 500.162 892.291C492.813 893.845 485.323 895.4 477.833 894.976C461.299 893.987 446.885 883.953 433.318 874.202C444.341 875.615 455.646 875.332 466.528 873.637C444.765 857.95 423.143 842.405 401.38 826.719C420.599 829.686 439.253 835.763 456.494 844.525C463.984 848.34 471.191 852.58 479.247 854.7C487.302 856.82 496.488 856.396 503.13 851.308C507.511 847.916 510.337 842.829 514.718 839.437C524.328 831.806 539.59 833.785 548.352 825.164C558.527 815.272 554.146 798.313 549.059 785.029C550.048 802.412 535.068 815.978 521.642 826.719C510.196 783.616 503.13 739.524 500.727 695.009C500.021 683.562 499.738 671.832 502.564 660.668C513.305 617.424 566.865 602.727 606.999 603.01C601.064 604.988 595.129 607.108 589.193 609.087C606.293 607.108 623.958 606.402 640.633 610.782C657.309 615.163 673.137 625.338 680.91 640.742C660.701 626.186 636.253 616.718 611.38 616.435C586.367 616.153 561.071 625.338 543.83 643.427C563.049 625.762 590.041 616.859 616.044 619.686C642.047 622.512 666.495 636.785 681.616 658.124C694.052 646.395 695.183 624.773 684.019 611.772C675.822 602.303 663.103 598.205 650.809 595.944C600.499 586.9 546.232 604.706 511.044 641.731C540.155 611.348 552.309 569.093 593.009 549.732Z"
      fill="#E68253" />
    <path
      d="M437.981 783.758C429.643 773.865 418.62 762.984 404.912 764.397C399.542 764.962 394.596 767.506 389.933 770.05C344.569 793.933 296.096 820.783 276.877 864.875C285.639 851.732 297.934 840.568 312.207 832.513C306.554 845.797 295.39 856.537 287.476 868.832C279.562 881.127 275.181 897.237 283.802 909.249C282.388 892.856 297.51 879.855 308.109 866.429C316.729 855.407 322.806 842.97 331.709 832.23C343.297 818.098 365.626 801.564 384.562 796.335C410.283 789.41 398.836 818.239 412.12 829.121C409.717 818.805 408.728 808.488 412.826 798.313C414.946 793.509 429.785 774.148 437.981 783.758Z"
      fill="#E68253" />
    <path
      d="M302.739 890.878C300.901 891.443 298.499 892.856 299.206 894.693C299.347 895.117 299.771 895.541 300.053 895.965C331.709 928.61 373.964 950.514 418.762 957.722C412.261 956.732 401.662 928.751 399.26 923.098C395.585 914.478 394.455 898.085 387.672 891.726C379.899 884.236 358.56 885.083 348.385 884.942C332.981 884.518 317.577 886.497 302.739 890.878Z"
      fill="#E68253" />
    <path
      d="M456.494 1026.69C481.932 1027.82 509.63 1017.08 521.36 994.465C494.933 1007.18 463.278 1008.46 435.862 997.857C458.897 999.552 482.356 992.204 500.303 977.789C516.838 964.505 528.143 946.275 540.862 929.317C553.581 912.358 568.702 895.965 588.769 889.323C573.507 902.325 566.017 922.533 561.919 942.177C557.82 961.961 556.407 982.311 550.189 1001.39C543.83 1020.47 531.535 1038.98 512.739 1046.19C519.805 1039.55 524.752 1030.78 527.013 1021.46C525.882 1026.12 497.336 1030.08 492.955 1030.78C480.519 1032.62 467.941 1033.05 455.505 1031.91C429.078 1029.65 401.38 1022.73 381.454 1004.07C401.521 1014.67 433.883 1025.7 456.494 1026.69Z"
      fill="#E68253" />
    <path
      d="M494.085 1044.92C481.084 1052.83 465.821 1056.93 450.559 1056.65C436.851 1056.36 421.306 1054.38 408.163 1050.71C417.631 1047.04 430.633 1047.6 440.808 1047.6C455.222 1047.6 481.367 1052.69 494.085 1044.92Z"
      fill="#E68253" />
    <path
      d="M240.982 861.625C243.243 872.789 244.233 884.236 243.95 895.541C239.993 888.758 236.036 881.975 232.22 875.05C229.394 870.245 226.568 865.299 225.296 859.929C222.045 847.351 229.818 837.035 242.254 834.35C235.753 835.763 240.276 858.515 240.982 861.625Z"
      fill="#E68253" />
    <path
      d="M307.119 580.116C321.958 581.388 336.231 586.476 350.363 591.422C373.822 599.76 397.281 608.098 420.74 616.435C418.055 606.543 421.73 595.52 418.621 585.769C414.381 572.768 400.108 566.408 387.389 561.745C376.083 557.505 364.919 553.266 353.614 549.026C334.394 541.819 315.033 534.611 294.825 531.926C274.475 529.241 252.994 531.361 235.47 542.101C220.349 551.287 209.75 565.984 201.13 581.247C195.053 591.987 186.574 603.434 203.532 602.727C239.003 601.314 269.811 577.007 307.119 580.116Z"
      fill="#E68253" />
    <path
      d="M531.252 718.468C536.057 724.686 539.166 732.035 544.112 738.111C553.298 749.417 567.43 755.07 581.138 760.299C587.215 762.56 595.129 764.538 599.368 759.592C595.27 750.83 588.345 743.764 582.41 736.133C571.811 722.708 563.897 707.021 561.212 690.345C560.929 688.367 560.647 686.106 561.777 684.269C564.038 680.736 569.267 682.008 573.224 683.279C584.106 687.095 595.553 689.215 607.141 689.639C586.932 684.834 566.441 674.376 549.906 661.94C548.352 660.81 546.656 659.538 544.678 659.679C542.982 659.82 541.569 660.951 540.297 662.082C534.785 667.028 529.698 672.68 527.154 679.605C521.643 694.302 521.925 706.315 531.252 718.468Z"
      fill="#E68253" />
  </g>
  <path
    d="M722.457 560.049C722.457 560.049 725.284 604.988 728.817 633.535C732.35 662.082 723.87 701.368 711.01 723.556C711.01 723.556 713.13 763.549 700.27 800.716C687.41 837.883 639.644 927.762 607.423 977.083C575.202 1026.4 568.136 1043.5 555.276 1082.79C542.416 1122.08 520.229 1145.68 452.396 1144.97C384.562 1144.26 349.515 1139.32 304.576 1084.34C259.636 1029.37 168.909 935.111 138.949 880.137C108.99 825.164 110.403 765.951 110.403 765.951C110.403 765.951 71.5399 783.475 42.5694 734.154C13.599 684.834 3 664.484 3 601.314C3 538.144 4.13056 493.205 45.8198 496.314C50.0594 388.204 97.26 217.773 313.62 173.964C529.98 130.155 743.514 247.026 722.457 560.049Z"
    stroke="black" stroke-width="5" stroke-miterlimit="10" />
  <mask id="mask3_605_1012" style="mask-type:luminance" maskUnits="userSpaceOnUse" x="18" y="0" width="739"
    height="677">
    <path
      d="M534.927 4.3809C524.045 3.25035 512.457 4.66354 502.564 0C505.532 3.10903 508.5 6.07674 511.326 9.18577C504.26 1.83716 480.66 0.989235 471.192 0.565277C457.342 -0.14132 443.21 1.13056 429.926 4.94618C435.438 4.66354 440.949 5.37014 445.895 8.05521C432.753 5.22882 419.186 8.33784 405.902 9.4684C386.4 11.0229 366.615 8.33785 348.244 1.55451C351.918 3.39167 354.886 6.78333 356.016 10.7403C331.003 6.35938 304.152 4.66354 278.714 4.52222C253.277 4.3809 227.415 8.90313 205.228 21.1979C210.316 20.774 215.403 20.35 220.349 19.926C195.901 23.1764 174.845 39.4281 158.734 58.2236C130.894 90.7271 105.881 126.764 79.3126 160.539C82.987 158.136 86.8026 155.734 90.4769 153.473C69.8442 173.682 54.7231 199.684 47.5158 227.807C49.7769 221.73 53.3099 216.219 57.6908 211.555C45.396 247.45 33.9491 285.889 26.4592 323.056C14.3057 383.824 15.4363 447.276 29.9922 507.478C28.579 505.217 29.1442 501.825 31.4054 500.129C28.579 502.249 46.6679 539.982 48.2224 543.656C55.0057 559.484 62.4956 574.887 70.8335 590.009C70.4095 586.334 70.1269 582.519 69.7029 578.844C75.2144 590.433 81.7151 601.597 89.3463 611.913C89.205 609.228 89.0637 606.684 88.9224 603.999C98.3908 622.088 104.044 642.014 105.739 662.223C105.881 659.114 106.163 656.146 106.305 653.037C108.283 661.092 111.251 668.865 115.066 676.072C113.936 673.246 113.936 669.995 115.066 667.169C116.056 669.854 116.904 672.68 117.893 675.366C118.882 671.409 119.73 667.593 120.719 663.636C121.567 667.169 122.274 670.702 123.122 674.235C121.991 669.289 124.959 661.516 125.241 656.287C125.524 650.776 124.676 645.971 123.687 640.318C121.426 626.61 120.154 612.761 120.154 598.77C121.991 602.303 123.687 605.978 125.524 609.511C124.535 573.616 126.089 537.72 130.188 502.249C128.492 506.348 126.937 510.587 125.241 514.685C130.753 490.802 127.644 467.909 143.472 447.135C140.08 448.124 136.971 450.244 134.569 452.929C140.504 442.754 144.461 431.307 146.157 419.719C144.037 423.252 141.917 426.785 139.797 430.459C141.211 412.37 144.602 394.564 149.972 377.323C158.452 382.41 168.768 384.389 178.378 382.41C172.442 384.53 165.941 385.519 159.582 385.519C166.083 389.476 174.562 390.183 181.628 387.215C176.682 389.052 172.018 391.879 168.203 395.553C171.17 392.727 177.388 392.444 181.345 391.596C177.106 393.857 173.573 397.532 169.474 400.217C179.367 400.075 190.248 399.51 197.738 393.151C204.522 387.498 207.207 378.312 209.044 369.692C213.001 351.885 214.979 326.307 229.959 313.729C230.383 317.545 229.535 321.926 228.97 325.883C237.308 310.337 247.624 295.358 262.321 285.607C277.019 275.856 296.521 271.899 312.49 279.247C309.946 276.986 307.402 274.584 304.717 272.323C311.642 275.432 318.708 278.117 326.056 280.095C323.371 277.693 320.545 275.149 317.86 272.746C324.926 276.562 332.84 278.682 340.754 278.823C337.645 276.703 334.677 274.584 331.568 272.464C348.385 275.29 365.061 279.954 380.888 286.313C379.475 284.476 378.062 282.639 376.649 280.66C394.455 286.313 411.979 290.411 430.633 292.107C427.383 289.987 424.273 287.444 421.447 284.759C427.1 286.454 432.329 288.998 437.275 292.107C435.862 290.27 434.872 288.009 434.307 285.748C442.928 289.705 452.537 296.629 462.006 298.184C460.169 295.216 458.331 292.249 456.494 289.281C457.908 291.542 471.192 294.934 474.442 296.064C480.943 298.467 487.302 298.749 494.085 295.923C490.835 297.619 487.585 299.315 484.476 301.01C492.107 301.576 499.738 302 507.369 302.565C505.108 303.13 502.847 303.837 500.445 304.402C522.632 308.359 544.96 318.817 566.582 312.881C563.049 314.718 559.658 316.414 556.125 318.251C561.353 315.566 571.246 317.969 577.04 317.545C585.802 316.979 593.857 315.566 602.76 316.838C597.39 317.686 592.161 318.393 586.791 319.241C597.531 319.523 608.271 321.502 618.446 325.035C613.783 324.469 608.978 325.035 604.597 326.731C611.522 324.045 619.012 327.72 625.795 330.97C643.319 339.591 659.005 348.776 676.246 358.245C672.43 356.125 667.908 355.418 663.669 356.125C668.615 358.669 673.137 361.778 677.377 365.311C674.692 364.604 672.006 363.756 669.463 363.05C692.78 383.4 699.281 416.468 702.673 447.276C705.923 476.529 707.76 506.065 708.184 535.459C706.63 532.068 705.217 528.676 703.662 525.284C709.174 557.364 717.935 587.606 720.62 620.251C722.74 606.26 723.729 592.976 725.849 578.844C735.459 514.403 743.373 449.537 751.711 384.954C757.222 342.276 759.342 298.325 748.884 256.495C751.428 259.462 753.83 262.43 756.374 265.398C754.254 246.885 752.276 228.372 750.156 209.859C747.471 185.128 744.503 159.974 734.187 137.221C726.838 120.969 711.859 101.043 695.324 93.1295C696.031 83.5198 692.498 73.7687 685.856 66.8441C688.965 74.758 689.671 83.5198 687.834 91.8576C688.258 85.4983 685.997 78.9976 681.899 74.1927C685.291 82.9545 683.171 93.6948 676.67 100.478C676.811 86.9114 670.311 73.4861 659.853 65.0069C649.254 56.5278 634.839 53.1361 621.697 55.9625C636.253 56.8104 649.961 66.5614 655.472 80.1281C650.526 73.3448 643.036 68.5399 634.981 66.7028C645.58 70.9423 652.787 82.6719 651.515 94.1187C648.548 86.6288 640.916 82.2479 634.133 77.867C627.35 73.4861 620.284 67.2681 620.284 59.2128C619.012 63.0285 618.588 67.1267 619.012 71.225C611.804 64.3003 603.184 59.3542 596.542 51.8642C590.465 44.9396 585.66 36.8844 579.584 29.8184C567.854 16.2517 553.44 6.21806 534.927 4.3809Z"
      fill="white" />
  </mask>
  <g mask="url(#mask3_605_1012)">
    <path
      d="M534.927 4.3809C524.045 3.25035 512.457 4.66354 502.564 0C505.532 3.10903 508.5 6.07674 511.326 9.18577C504.26 1.83716 480.66 0.989235 471.192 0.565277C457.342 -0.14132 443.21 1.13056 429.926 4.94618C435.438 4.66354 440.949 5.37014 445.895 8.05521C432.753 5.22882 419.186 8.33784 405.902 9.4684C386.4 11.0229 366.615 8.33785 348.244 1.55451C351.918 3.39167 354.886 6.78333 356.016 10.7403C331.003 6.35938 304.152 4.66354 278.714 4.52222C253.277 4.3809 227.415 8.90313 205.228 21.1979C210.316 20.774 215.403 20.35 220.349 19.926C195.901 23.1764 174.845 39.4281 158.734 58.2236C130.894 90.7271 105.881 126.764 79.3126 160.539C82.987 158.136 86.8026 155.734 90.4769 153.473C69.8442 173.682 54.7231 199.684 47.5158 227.807C49.7769 221.73 53.3099 216.219 57.6908 211.555C45.396 247.45 33.9491 285.889 26.4592 323.056C14.3057 383.824 15.4363 447.276 29.9922 507.478C28.579 505.217 29.1442 501.825 31.4054 500.129C28.579 502.249 46.6679 539.982 48.2224 543.656C55.0057 559.484 62.4956 574.887 70.8335 590.009C70.4095 586.334 70.1269 582.519 69.7029 578.844C75.2144 590.433 81.7151 601.597 89.3463 611.913C89.205 609.228 89.0637 606.684 88.9224 603.999C98.3908 622.088 104.044 642.014 105.739 662.223C105.881 659.114 106.163 656.146 106.305 653.037C108.283 661.092 111.251 668.865 115.066 676.072C113.936 673.246 113.936 669.995 115.066 667.169C116.056 669.854 116.904 672.68 117.893 675.366C118.882 671.409 119.73 667.593 120.719 663.636C121.567 667.169 122.274 670.702 123.122 674.235C121.991 669.289 124.959 661.516 125.241 656.287C125.524 650.776 124.676 645.971 123.687 640.318C121.426 626.61 120.154 612.761 120.154 598.77C121.991 602.303 123.687 605.978 125.524 609.511C124.535 573.616 126.089 537.72 130.188 502.249C128.492 506.348 126.937 510.587 125.241 514.685C130.753 490.802 127.644 467.909 143.472 447.135C140.08 448.124 136.971 450.244 134.569 452.929C140.504 442.754 144.461 431.307 146.157 419.719C144.037 423.252 141.917 426.785 139.797 430.459C141.211 412.37 144.602 394.564 149.972 377.323C158.452 382.41 168.768 384.389 178.378 382.41C172.442 384.53 165.941 385.519 159.582 385.519C166.083 389.476 174.562 390.183 181.628 387.215C176.682 389.052 172.018 391.879 168.203 395.553C171.17 392.727 177.388 392.444 181.345 391.596C177.106 393.857 173.573 397.532 169.474 400.217C179.367 400.075 190.248 399.51 197.738 393.151C204.522 387.498 207.207 378.312 209.044 369.692C213.001 351.885 214.979 326.307 229.959 313.729C230.383 317.545 229.535 321.926 228.97 325.883C237.308 310.337 247.624 295.358 262.321 285.607C277.019 275.856 296.521 271.899 312.49 279.247C309.946 276.986 307.402 274.584 304.717 272.323C311.642 275.432 318.708 278.117 326.056 280.095C323.371 277.693 320.545 275.149 317.86 272.746C324.926 276.562 332.84 278.682 340.754 278.823C337.645 276.703 334.677 274.584 331.568 272.464C348.385 275.29 365.061 279.954 380.888 286.313C379.475 284.476 378.062 282.639 376.649 280.66C394.455 286.313 411.979 290.411 430.633 292.107C427.383 289.987 424.273 287.444 421.447 284.759C427.1 286.454 432.329 288.998 437.275 292.107C435.862 290.27 434.872 288.009 434.307 285.748C442.928 289.705 452.537 296.629 462.006 298.184C460.169 295.216 458.331 292.249 456.494 289.281C457.908 291.542 471.192 294.934 474.442 296.064C480.943 298.467 487.302 298.749 494.085 295.923C490.835 297.619 487.585 299.315 484.476 301.01C492.107 301.576 499.738 302 507.369 302.565C505.108 303.13 502.847 303.837 500.445 304.402C522.632 308.359 544.96 318.817 566.582 312.881C563.049 314.718 559.658 316.414 556.125 318.251C561.353 315.566 571.246 317.969 577.04 317.545C585.802 316.979 593.857 315.566 602.76 316.838C597.39 317.686 592.161 318.393 586.791 319.241C597.531 319.523 608.271 321.502 618.446 325.035C613.783 324.469 608.978 325.035 604.597 326.731C611.522 324.045 619.012 327.72 625.795 330.97C643.319 339.591 659.005 348.776 676.246 358.245C672.43 356.125 667.908 355.418 663.669 356.125C668.615 358.669 673.137 361.778 677.377 365.311C674.692 364.604 672.006 363.756 669.463 363.05C692.78 383.4 699.281 416.468 702.673 447.276C705.923 476.529 707.76 506.065 708.184 535.459C706.63 532.068 705.217 528.676 703.662 525.284C709.174 557.364 717.935 587.606 720.62 620.251C722.74 606.26 723.729 592.976 725.849 578.844C735.459 514.403 743.373 449.537 751.711 384.954C757.222 342.276 759.342 298.325 748.884 256.495C751.428 259.462 753.83 262.43 756.374 265.398C754.254 246.885 752.276 228.372 750.156 209.859C747.471 185.128 744.503 159.974 734.187 137.221C726.838 120.969 711.859 101.043 695.324 93.1295C696.031 83.5198 692.498 73.7687 685.856 66.8441C688.965 74.758 689.671 83.5198 687.834 91.8576C688.258 85.4983 685.997 78.9976 681.899 74.1927C685.291 82.9545 683.171 93.6948 676.67 100.478C676.811 86.9114 670.311 73.4861 659.853 65.0069C649.254 56.5278 634.839 53.1361 621.697 55.9625C636.253 56.8104 649.961 66.5614 655.472 80.1281C650.526 73.3448 643.036 68.5399 634.981 66.7028C645.58 70.9423 652.787 82.6719 651.515 94.1187C648.548 86.6288 640.916 82.2479 634.133 77.867C627.35 73.4861 620.284 67.2681 620.284 59.2128C619.012 63.0285 618.588 67.1267 619.012 71.225C611.804 64.3003 603.184 59.3542 596.542 51.8642C590.465 44.9396 585.66 36.8844 579.584 29.8184C567.854 16.2517 553.44 6.21806 534.927 4.3809Z"
      fill="#1B130D" />
  </g>
  <mask id="mask4_605_1012" style="mask-type:luminance" maskUnits="userSpaceOnUse" x="18" y="0" width="739"
    height="677">
    <path
      d="M534.927 4.3809C524.045 3.25035 512.457 4.66354 502.564 0C505.532 3.10903 508.5 6.07674 511.326 9.18577C504.26 1.83716 480.66 0.989235 471.192 0.565277C457.342 -0.14132 443.21 1.13056 429.926 4.94618C435.438 4.66354 440.949 5.37014 445.895 8.05521C432.753 5.22882 419.186 8.33784 405.902 9.4684C386.4 11.0229 366.615 8.33785 348.244 1.55451C351.918 3.39167 354.886 6.78333 356.016 10.7403C331.003 6.35938 304.152 4.66354 278.714 4.52222C253.277 4.3809 227.415 8.90313 205.228 21.1979C210.316 20.774 215.403 20.35 220.349 19.926C195.901 23.1764 174.845 39.4281 158.734 58.2236C130.894 90.7271 105.881 126.764 79.3126 160.539C82.987 158.136 86.8026 155.734 90.4769 153.473C69.8442 173.682 54.7231 199.684 47.5158 227.807C49.7769 221.73 53.3099 216.219 57.6908 211.555C45.396 247.45 33.9491 285.889 26.4592 323.056C14.3057 383.824 15.4363 447.276 29.9922 507.478C28.579 505.217 29.1442 501.825 31.4054 500.129C28.579 502.249 46.6679 539.982 48.2224 543.656C55.0057 559.484 62.4956 574.887 70.8335 590.009C70.4095 586.334 70.1269 582.519 69.7029 578.844C75.2144 590.433 81.7151 601.597 89.3463 611.913C89.205 609.228 89.0637 606.684 88.9224 603.999C98.3908 622.088 104.044 642.014 105.739 662.223C105.881 659.114 106.163 656.146 106.305 653.037C108.283 661.092 111.251 668.865 115.066 676.072C113.936 673.246 113.936 669.995 115.066 667.169C116.056 669.854 116.904 672.68 117.893 675.366C118.882 671.409 119.73 667.593 120.719 663.636C121.567 667.169 122.274 670.702 123.122 674.235C121.991 669.289 124.959 661.516 125.241 656.287C125.524 650.776 124.676 645.971 123.687 640.318C121.426 626.61 120.154 612.761 120.154 598.77C121.991 602.303 123.687 605.978 125.524 609.511C124.535 573.616 126.089 537.72 130.188 502.249C128.492 506.348 126.937 510.587 125.241 514.685C130.753 490.802 127.644 467.909 143.472 447.135C140.08 448.124 136.971 450.244 134.569 452.929C140.504 442.754 144.461 431.307 146.157 419.719C144.037 423.252 141.917 426.785 139.797 430.459C141.211 412.37 144.602 394.564 149.972 377.323C158.452 382.41 168.768 384.389 178.378 382.41C172.442 384.53 165.941 385.519 159.582 385.519C166.083 389.476 174.562 390.183 181.628 387.215C176.682 389.052 172.018 391.879 168.203 395.553C171.17 392.727 177.388 392.444 181.345 391.596C177.106 393.857 173.573 397.532 169.474 400.217C179.367 400.075 190.248 399.51 197.738 393.151C204.522 387.498 207.207 378.312 209.044 369.692C213.001 351.885 214.979 326.307 229.959 313.729C230.383 317.545 229.535 321.926 228.97 325.883C237.308 310.337 247.624 295.358 262.321 285.607C277.019 275.856 296.521 271.899 312.49 279.247C309.946 276.986 307.402 274.584 304.717 272.323C311.642 275.432 318.708 278.117 326.056 280.095C323.371 277.693 320.545 275.149 317.86 272.746C324.926 276.562 332.84 278.682 340.754 278.823C337.645 276.703 334.677 274.584 331.568 272.464C348.385 275.29 365.061 279.954 380.888 286.313C379.475 284.476 378.062 282.639 376.649 280.66C394.455 286.313 411.979 290.411 430.633 292.107C427.383 289.987 424.273 287.444 421.447 284.759C427.1 286.454 432.329 288.998 437.275 292.107C435.862 290.27 434.872 288.009 434.307 285.748C442.928 289.705 452.537 296.629 462.006 298.184C460.169 295.216 458.331 292.249 456.494 289.281C457.908 291.542 471.192 294.934 474.442 296.064C480.943 298.467 487.302 298.749 494.085 295.923C490.835 297.619 487.585 299.315 484.476 301.01C492.107 301.576 499.738 302 507.369 302.565C505.108 303.13 502.847 303.837 500.445 304.402C522.632 308.359 544.96 318.817 566.582 312.881C563.049 314.718 559.658 316.414 556.125 318.251C561.353 315.566 571.246 317.969 577.04 317.545C585.802 316.979 593.857 315.566 602.76 316.838C597.39 317.686 592.161 318.393 586.791 319.241C597.531 319.523 608.271 321.502 618.446 325.035C613.783 324.469 608.978 325.035 604.597 326.731C611.522 324.045 619.012 327.72 625.795 330.97C643.319 339.591 659.005 348.776 676.246 358.245C672.43 356.125 667.908 355.418 663.669 356.125C668.615 358.669 673.137 361.778 677.377 365.311C674.692 364.604 672.006 363.756 669.463 363.05C692.78 383.4 699.281 416.468 702.673 447.276C705.923 476.529 707.76 506.065 708.184 535.459C706.63 532.068 705.217 528.676 703.662 525.284C709.174 557.364 717.935 587.606 720.62 620.251C722.74 606.26 723.729 592.976 725.849 578.844C735.459 514.403 743.373 449.537 751.711 384.954C757.222 342.276 759.342 298.325 748.884 256.495C751.428 259.462 753.83 262.43 756.374 265.398C754.254 246.885 752.276 228.372 750.156 209.859C747.471 185.128 744.503 159.974 734.187 137.221C726.838 120.969 711.859 101.043 695.324 93.1295C696.031 83.5198 692.498 73.7687 685.856 66.8441C688.965 74.758 689.671 83.5198 687.834 91.8576C688.258 85.4983 685.997 78.9976 681.899 74.1927C685.291 82.9545 683.171 93.6948 676.67 100.478C676.811 86.9114 670.311 73.4861 659.853 65.0069C649.254 56.5278 634.839 53.1361 621.697 55.9625C636.253 56.8104 649.961 66.5614 655.472 80.1281C650.526 73.3448 643.036 68.5399 634.981 66.7028C645.58 70.9423 652.787 82.6719 651.515 94.1187C648.548 86.6288 640.916 82.2479 634.133 77.867C627.35 73.4861 620.284 67.2681 620.284 59.2128C619.012 63.0285 618.588 67.1267 619.012 71.225C611.804 64.3003 603.184 59.3542 596.542 51.8642C590.465 44.9396 585.66 36.8844 579.584 29.8184C567.854 16.2517 553.44 6.21806 534.927 4.3809Z"
      fill="white" />
  </mask>
  <g mask="url(#mask4_605_1012)">
    <path
      d="M435.014 120.263C445.895 114.61 456.777 108.957 468.648 105.848C480.377 102.598 493.237 102.033 504.684 106.555C491.965 104.435 479.388 101.609 466.952 98.2171C482.214 99.3477 497.618 99.6303 512.881 99.2063C501.575 99.065 490.27 97.6518 479.247 95.1081C500.303 88.3247 523.48 88.1834 544.536 94.6841C531.535 85.6397 515.848 80.4108 500.021 79.9869C527.437 74.0515 557.679 83.8025 576.333 104.859C562.484 96.3799 548.211 88.7487 533.372 82.1067C544.112 86.4876 553.581 94.1188 560.223 103.729C546.656 98.6411 531.959 96.2386 517.544 96.6626C529.98 95.956 542.699 100.054 552.45 107.686C537.046 102.315 520.371 100.902 504.26 103.446C524.469 99.9129 545.101 118.85 564.18 111.36C543.547 114.328 522.066 111.925 502.706 104.435C519.24 117.295 538.883 125.916 559.516 129.166C548.069 127.329 538.883 128.177 527.437 124.079C519.381 121.111 511.609 118.143 503.13 116.306C480.66 111.077 456.636 112.49 435.014 120.263Z"
      fill="#442B11" />
    <path
      d="M670.169 184.705C667.201 180.182 662.82 176.649 657.733 174.812C664.092 176.932 670.028 180.182 675.398 184.139C670.452 179.9 666.636 174.53 664.234 168.594C671.724 172.692 678.648 178.063 684.584 184.139C683.029 177.78 680.768 171.421 677.8 165.626C685.29 172.41 695.607 175.801 705.64 174.812C701.118 170.573 696.596 166.333 692.074 161.952C699.705 164.496 706.771 168.594 712.848 174.106C710.869 168.312 708.325 162.8 705.075 157.713C712.989 160.68 719.49 167.605 721.892 175.801C718.076 159.691 706.347 145.842 691.226 139.2C701.259 143.722 711.434 148.244 719.207 156.158C713.837 147.396 706.63 139.765 698.15 133.971C710.163 132.558 722.74 139.906 727.403 151.071C726.838 142.309 722.175 134.254 716.663 127.47C708.043 117.013 694.617 108.109 681.616 111.925C694.193 113.48 706.064 119.556 714.543 128.883C705.499 123.937 694.759 121.959 684.584 123.231C691.226 123.655 697.868 125.492 703.803 128.459C695.041 130.014 685.997 129.166 677.659 126.34C683.736 128.883 689.813 131.568 696.031 134.112C688.965 133.971 681.899 134.395 674.974 135.384C682.04 134.96 689.247 136.797 695.183 140.613C688.399 140.613 681.757 140.754 674.974 140.754C686.703 141.319 698.009 147.396 705.075 156.723C698.574 155.027 692.356 152.766 686.28 150.081C690.802 152.484 694.9 155.875 698.15 159.974C690.943 156.158 683.736 152.484 676.528 148.668C681.899 155.027 688.117 160.822 695.041 165.626C685.714 161.811 676.528 157.571 667.484 153.049C671.865 157.147 676.105 161.246 680.485 165.202C673.278 159.55 664.516 156.158 655.472 155.451C664.658 156.865 673.278 161.811 679.214 169.018C672.713 163.507 664.375 160.115 655.755 159.691C662.538 161.952 668.756 165.768 673.985 170.573C666.777 167.746 659.429 164.92 652.222 162.093C655.896 167.04 660.983 170.997 666.495 173.54C659.994 171.421 653.917 167.746 648.971 162.941C651.515 167.746 655.331 171.844 659.711 175.095C652.222 169.301 641.905 166.474 632.578 168.311C637.807 170.573 643.036 172.834 648.123 175.519C651.798 177.215 668.473 182.019 670.169 184.705Z"
      fill="#442B11" />
    <path
      d="M178.943 382.834C185.443 376.758 188.835 367.996 191.661 359.517C187.704 367.148 181.204 373.366 173.431 377.182C189.259 361.637 198.869 340.015 199.575 317.828C198.021 332.949 189.683 347.081 177.388 355.842C165.093 364.604 148.7 367.431 134.144 363.756C148.135 371.105 165.659 371.246 179.79 364.039C164.245 373.79 144.885 377.464 126.796 373.931C133.579 377.747 141.352 379.867 149.265 380.149C135.699 387.074 124.393 398.38 117.186 411.946C126.513 404.315 135.981 396.825 145.309 389.194C135.134 398.521 127.926 410.957 124.959 424.382C131.035 415.197 137.96 406.717 145.591 398.945C136.971 415.621 125.382 430.742 111.533 443.461C122.273 435.688 132.307 427.067 141.493 417.599C128.209 433.144 119.023 452.081 115.207 472.148C121.284 455.897 130.329 440.634 141.493 427.209C132.166 443.178 123.545 459.43 115.773 476.105C122.697 467.202 129.622 458.44 136.547 449.537C129.339 464.941 119.164 478.932 106.87 490.661C115.773 484.443 123.969 477.377 131.601 469.605C121.426 482.323 114.642 498.01 112.522 514.262C118.599 504.369 124.111 494.335 129.198 483.878C122.697 500.554 115.631 517.088 108.141 533.481C117.186 522.599 124.959 510.729 131.459 498.151C122.556 513.414 116.762 530.655 114.501 548.178C119.73 538.286 125.1 528.252 130.329 518.36C116.197 538.568 122.132 565.984 128.633 589.726C132.59 535.742 149.972 483.737 167.213 432.296C170.746 443.178 174.42 454.059 177.953 464.941C172.301 447.841 169.757 429.752 164.104 412.512C162.408 407.283 156.755 397.814 160.288 392.303C163.821 386.933 173.996 387.498 178.943 382.834Z"
      fill="#442B11" />
    <path
      d="M84.6826 382.693C85.1065 373.931 87.5089 365.169 91.6072 357.538C82.5627 372.235 74.6489 388.77 76.6273 405.869C77.6166 381.28 80.3016 359.517 90.4766 336.764C78.8884 355.277 73.377 377.182 71.8225 398.945C70.1266 420.708 72.1051 442.613 74.2249 464.376C71.6811 443.46 74.5076 421.839 82.2801 402.337C82.7041 414.49 82.1388 426.785 80.7256 438.938C85.3891 425.513 88.6395 411.664 90.194 397.532C91.3246 411.664 93.727 425.654 96.9773 439.503C91.0419 415.055 92.8791 369.974 113.794 353.299C104.326 361.778 95.1402 371.67 90.9006 383.682C92.7377 371.811 97.9666 360.506 105.739 351.32C96.9773 358.245 86.8023 371.67 84.6826 382.693Z"
      fill="#442B11" />
    <path
      d="M66.8766 359.093C66.5939 340.015 70.1269 320.937 77.3342 303.272C67.1592 317.827 61.0825 335.068 59.6693 352.733C55.571 329.84 59.8106 305.815 70.6922 285.324C81.5738 264.833 98.8148 247.874 118.882 236.427C94.8578 253.103 76.4863 277.693 67.1592 305.391C75.7797 284.476 92.0314 266.952 112.099 256.636C94.4339 268.224 80.5846 285.465 73.0946 305.391C79.1714 289.14 98.3908 277.551 114.925 275.432C103.761 282.78 94.2926 290.977 86.8026 302.141C75.7797 318.817 71.3988 339.449 66.8766 359.093Z"
      fill="#442B11" />
    <path
      d="M55.9948 293.521C45.8198 309.914 38.8951 328.144 35.6448 347.081C39.3191 337.047 44.8305 327.72 51.8965 319.523C38.3298 341.145 40.3083 368.844 42.852 394.281C39.4604 378.736 38.0472 362.626 38.6125 346.798C37.4819 356.69 35.5034 366.441 32.5357 375.91C32.8184 362.767 31.9704 349.483 29.8507 336.482C24.3392 356.266 24.0566 377.606 28.8614 397.532C19.393 380.856 20.5236 360.223 23.35 341.145C28.4375 306.946 38.4711 272.04 61.2236 245.896C47.9395 269.072 38.8951 294.651 34.9382 321.078C39.1777 296.63 50.4833 273.312 67.159 254.799C61.3649 267.094 55.5708 279.247 49.7767 291.542C65.0392 266.67 79.7364 241.374 95.4229 216.784C90.9006 228.231 89.2048 240.384 83.6934 251.407C76.2034 266.529 64.7566 279.247 55.9948 293.521Z"
      fill="#442B11" />
    <path
      d="M146.439 155.451C130.611 175.801 112.946 194.738 93.7269 211.838C103.902 199.826 112.522 186.683 119.588 172.551C101.499 187.107 85.813 208.022 76.062 229.079C80.0189 214.24 86.8022 200.108 95.988 187.672C74.5075 209.435 57.1252 235.156 44.9717 263.137C49.2113 228.514 64.4738 195.304 87.9328 169.583C81.5734 181.737 76.7686 194.597 73.6595 207.881C87.2262 176.649 123.969 162.517 144.178 135.101C134.851 141.602 125.665 147.962 116.338 154.462C135.416 120.97 172.159 98.3584 210.598 96.0973C184.878 97.5105 160.006 109.805 143.047 129.307C155.484 120.263 169.333 113.056 183.889 108.392C156.897 122.948 134.286 145.559 119.73 172.692C132.307 157.713 149.407 146.69 168.061 141.178C162.125 144.57 150.82 149.94 146.439 155.451Z"
      fill="#442B11" />
    <path
      d="M130.47 126.34C146.863 101.467 171.17 81.8241 198.727 70.6598C186.574 78.5737 174.844 87.0529 163.68 96.2386C193.357 77.0192 233.633 79.2803 262.038 58.2237C244.656 62.6046 227.274 66.9855 209.892 71.3664C226.002 63.5938 242.819 56.9518 259.919 51.723C225.154 56.2452 187.563 62.0393 163.115 87.1942C177.105 67.9747 196.042 52.4296 217.523 42.5372C163.539 64.1591 119.73 110.088 100.793 165.061C105.174 140.896 116.055 117.861 131.883 99.065C118.882 114.186 104.891 128.318 89.77 141.461C110.403 120.687 125.1 94.6841 144.743 72.9209C196.608 15.4039 284.508 -6.64193 357.429 19.6435C317.153 6.92474 272.496 8.47925 233.068 23.8831C263.31 14.9799 295.955 14.2734 326.48 21.7633C289.454 16.6758 250.874 24.731 219.077 44.2331C240.558 36.1779 264.017 33.0688 286.911 35.1886C261.473 35.8952 236.177 42.6786 213.99 54.9734C248.048 47.2008 283.095 43.5265 318.001 44.3744C305.141 39.1456 291.15 36.8845 277.301 37.7324C311.218 29.5359 348.385 34.906 378.627 52.4296C357.994 43.2438 334.818 39.7109 312.207 42.2546C328.459 44.657 344.569 47.0595 360.821 49.3206C330.013 52.0056 299.347 54.6907 268.539 57.3758C286.345 59.6369 304.717 59.0716 322.241 55.256C305.423 56.9518 290.726 68.54 274.051 71.7904C259.071 74.6168 243.808 75.0407 228.828 78.2911C198.303 84.6504 148.983 98.4998 130.47 126.34Z"
      fill="#442B11" />
    <path
      d="M405.054 56.9518C413.25 45.3636 424.838 36.1778 437.981 30.6664C423.143 39.0042 418.62 57.941 416.218 74.8993C423.284 57.941 436.709 43.8091 453.102 35.8952C445.047 42.8198 438.829 52.0056 435.437 62.0393C440.666 53.5601 449.287 47.766 457.907 42.6785C468.789 36.1778 480.801 30.2424 493.52 30.525C504.401 30.6664 514.718 35.4712 524.469 39.9934C503.836 25.0136 475.431 21.4806 451.83 30.949C469.778 19.6434 492.954 17.241 512.739 24.7309C491.117 15.9691 466.104 15.9691 444.623 24.8723C459.603 16.1105 477.409 12.4361 494.65 14.5559C459.744 10.175 414.522 14.5559 405.054 56.9518Z"
      fill="#442B11" />
    <path
      d="M584.953 78.715C575.626 69.5292 561.07 65.8549 548.493 69.6705C563.049 72.3556 577.181 78.1497 589.476 86.3462C577.746 81.824 564.462 81.5414 552.591 85.4983C575.202 81.5414 599.509 90.0205 614.631 107.262C607.989 96.5212 598.803 87.3355 588.204 80.5521C604.173 93.6948 622.686 103.729 642.329 109.947C628.48 105.283 616.044 96.3799 606.999 84.933C616.609 93.6948 628.763 99.3476 641.623 101.043C623.11 94.1188 606.293 82.5306 593.291 67.5507C612.087 77.5844 630.317 88.7487 647.558 101.043C635.687 89.8792 623.11 79.5629 609.826 69.9532C620.283 77.7257 631.73 84.0851 643.742 89.0313C626.077 81.6827 612.511 67.1268 600.499 52.1469C588.486 37.1671 577.181 21.3393 561.918 9.75109C546.656 -1.8371 526.023 -8.47912 508.076 -1.97842C520.936 -4.94613 534.785 -1.97842 546.515 4.09831C558.244 10.175 568.419 18.9369 578.029 28.1226C562.625 16.3931 543.547 9.60977 524.186 8.76185C549.624 12.1535 573.224 27.416 586.932 49.1792C575.485 35.4712 559.092 25.8615 541.568 22.6112C559.375 30.1011 574.778 43.5264 584.812 60.0608C564.038 38.4389 543.688 17.8063 511.609 24.8723C549.765 26.1441 561.07 54.9733 584.953 78.715Z"
      fill="#442B11" />
    <path
      d="M188.411 334.503C179.084 343.265 165.941 348.07 153.364 345.809C140.787 343.548 129.764 333.373 127.785 320.795C132.025 329.981 139.797 337.754 149.548 340.721C159.158 343.689 170.746 341.004 177.247 333.231C166.507 340.156 153.081 342.7 140.504 340.297C153.788 340.015 166.789 332.949 174.421 321.926C169.898 327.579 161.561 328.992 154.353 327.437C147.287 325.741 141.069 321.502 135.134 317.404C147.994 327.437 169.05 324.187 178.378 310.762C169.898 316.414 158.169 316.556 149.548 311.327C157.321 313.871 165.8 309.49 171.877 303.978C177.954 298.467 182.758 291.542 189.683 287.02C180.073 293.803 168.203 297.054 156.614 296.347C161.984 299.032 168.203 294.792 172.442 290.412C192.509 269.779 206.076 242.222 230.242 226.676C211.588 243.635 192.368 261.724 183.889 285.465C192.368 273.877 202.967 263.985 215.121 256.212C196.042 267.376 192.651 295.075 174.421 307.511C186.291 301.293 196.184 291.401 202.543 279.53C195.195 294.934 185.02 309.066 172.725 320.937C183.182 315.425 191.52 305.674 195.195 294.51C189.966 310.479 180.921 325.035 168.909 336.906C192.792 328.285 197.314 293.803 219.643 281.65C201.837 291.259 202.826 320.795 188.411 334.503Z"
      fill="#442B11" />
    <path
      d="M187.563 245.189C178.519 257.201 166.224 266.811 152.375 272.605C167.637 264.55 179.649 250.559 185.302 234.308C179.225 245.755 167.072 252.679 155.625 258.756C170.746 238.689 185.726 218.763 200.847 198.695C183.041 210.99 167.354 226.535 155.06 244.341C162.55 229.927 171.17 216.219 180.921 203.359C174.138 211.697 165.8 218.621 156.473 223.85C173.149 211.273 185.302 193.608 200.423 179.052C215.544 164.496 236.036 152.766 256.668 156.865C245.363 153.19 233.492 149.516 221.621 151.212C203.391 153.756 189.542 168.453 178.519 183.15C167.496 197.847 157.179 214.099 140.928 222.861C155.06 208.87 162.267 189.509 173.431 172.975C184.595 156.441 202.967 141.743 222.469 145.418C201.695 143.722 180.356 149.516 163.398 161.528C186.574 141.461 217.947 124.644 246.776 134.677C269.67 142.591 288.183 166.474 312.207 163.083C287.617 165.344 262.321 157.995 242.678 142.874C251.157 154.038 264.017 161.811 277.866 164.213C251.298 156.158 220.632 163.789 200.988 183.291C216.392 171.279 236.46 165.202 255.82 166.898C238.579 167.322 221.904 176.084 211.587 189.792C225.013 179.758 241.547 173.964 258.364 173.54C232.22 176.367 207.63 191.629 193.64 213.958C209.326 194.738 234.764 183.998 259.353 186.259C231.796 185.694 204.38 199.826 188.976 222.719C203.108 208.305 224.448 201.522 244.232 204.913C216.675 200.108 202.26 225.546 187.563 245.189Z"
      fill="#442B11" />
    <path
      d="M323.654 135.101C339.764 131.992 356.44 131.144 372.833 132.699C357.994 129.166 343.014 126.198 327.893 123.796C349.656 128.035 372.267 127.188 393.607 121.535C368.028 120.687 342.449 118.426 317.153 114.61C346.83 113.338 376.79 112.066 405.76 118.284C390.639 111.784 374.67 106.979 358.559 104.152C378.062 109.099 398.411 111.077 418.479 109.805C381.594 102.315 344.427 96.5212 307.119 92.423C289.737 90.4445 272.072 88.89 254.69 91.575C237.449 94.2601 220.208 101.75 209.043 115.317C223.317 101.75 243.101 95.2494 262.745 93.9775C282.388 92.7056 301.89 96.0973 321.11 99.9129C301.608 98.9237 281.964 103.022 264.441 111.642C285.78 106.555 307.684 104.435 329.589 105.142C314.326 111.218 297.933 114.469 281.54 115.034C298.216 116.165 315.033 116.73 331.709 116.871C316.729 119.556 301.325 120.687 286.063 120.263C298.781 122.524 311.5 124.644 324.219 126.905C310.511 129.59 296.238 130.297 282.247 128.883C299.347 133.688 317.294 135.525 335.1 134.254C312.489 139.341 293.694 134.112 271.789 130.579C299.205 145.842 343.014 151.494 371.42 137.363C357.429 137.221 337.079 132.416 323.654 135.101Z"
      fill="#442B11" />
    <path
      d="M311.359 247.309C346.971 247.026 380.323 220.317 415.229 227.383C390.498 221.73 364.354 221.589 339.623 227.242C383.432 219.61 426.958 196.293 469.919 207.881C422.153 183.291 358.983 222.578 312.065 196.575C325.773 207.174 343.58 212.262 360.679 210.425C340.188 215.512 317.859 213.11 298.923 203.783C314.044 213.816 332.839 218.197 350.787 216.077C329.165 223.567 304.01 219.469 285.78 205.62C304.434 219.469 328.034 226.535 351.352 225.263C325.915 235.156 295.248 229.361 275.04 211.131C287.617 231.057 314.892 234.449 338.492 235.721C325.067 240.808 309.804 237.982 296.238 233.318C282.671 228.655 269.528 222.154 255.255 219.752C240.982 217.349 224.871 220.034 215.403 231.057C225.578 219.186 245.787 218.904 258.364 225.97C276.453 236.145 289.03 247.45 311.359 247.309Z"
      fill="#442B11" />
    <path
      d="M474.159 168.17C455.929 164.92 436.992 165.344 418.903 169.583C437.133 158.136 459.32 153.19 480.66 155.875C465.538 152.201 449.287 152.625 434.307 157.147C458.755 142.591 488.432 136.939 516.413 141.461C481.225 125.633 439.96 137.504 404.771 153.332C422.436 148.809 439.96 144.287 457.625 139.765C425.262 154.321 390.78 169.301 355.592 165.344C376.083 171.986 398.553 171.845 418.903 165.202C394.455 183.15 360.821 180.041 330.72 175.943C354.885 179.193 374.105 191.064 399.26 186.118C424.556 181.03 448.015 167.888 474.159 168.17Z"
      fill="#442B11" />
  </g>
  <path
    d="M621.979 591.422C617.74 591.139 613.5 590.998 609.26 590.715C630.176 586.052 652.221 586.334 672.995 591.422C668.615 590.433 664.092 590.715 659.853 592.27C676.387 592.694 693.204 597.781 705.358 609.511C702.531 608.098 699.705 606.826 696.878 605.412C702.814 610.924 709.597 615.305 716.946 618.555C714.967 617.99 712.989 617.425 711.01 616.859C715.391 619.544 719.914 622.371 724.294 625.056C724.012 621.806 723.729 618.414 723.588 615.164C725.001 617.001 725.99 619.12 726.414 621.24C724.577 613.468 725.849 604.989 723.588 596.933C721.327 588.595 717.652 580.54 712.848 573.333C703.379 559.06 691.226 547.33 673.985 543.515C677.942 544.645 681.333 547.189 683.594 550.581C659.711 539.134 631.306 545.069 605.586 551.57C593.009 554.82 579.583 558.636 571.528 568.669C573.789 566.267 575.344 563.299 575.909 560.19C571.104 565.702 566.299 571.213 561.636 576.866C563.473 573.192 565.31 569.376 567.006 565.702C558.951 574.888 552.167 585.204 546.656 596.227C550.189 591.987 554.287 588.313 558.668 585.062C554.146 590.291 549.906 595.944 546.232 601.879C555.983 597.075 566.158 596.509 576.898 595.096C591.595 593.4 607.423 590.574 621.979 591.422Z"
    fill="#3F2711" />
  <path
    d="M407.598 601.879C385.693 595.944 363.647 589.867 341.743 583.932C330.861 580.964 319.98 577.996 308.815 577.007C290.727 575.311 272.496 578.703 254.549 582.095C256.951 582.519 259.354 582.943 261.756 583.508C256.951 584.073 252.005 584.497 247.2 585.062C249.037 586.476 251.581 586.758 253.701 586.052C241.265 592.27 227.839 596.509 214.131 598.488C218.088 598.77 222.187 599.053 226.144 599.336C219.925 600.466 213.566 601.314 207.207 601.597C210.881 602.303 214.697 603.01 218.371 603.575C209.468 604.423 200.706 607.108 192.792 611.207C195.053 608.945 197.314 606.543 199.717 604.282C196.466 606.119 192.933 607.25 189.259 607.956C189.824 604.989 190.248 601.879 190.814 598.912C188.694 600.749 186.433 602.445 184.313 604.282C193.64 581.388 211.164 562.027 232.927 550.298C228.97 551.146 225.013 552.7 221.763 555.103C235.753 540.406 256.245 532.209 276.453 532.916C272.214 534.611 267.974 536.307 263.593 538.003C289.596 536.59 315.881 538.992 341.178 544.928C362.517 550.015 389.085 554.82 404.347 571.92C402.369 568.245 400.249 564.712 398.271 561.038C408.022 569.376 415.936 579.692 421.447 591.28C418.621 586.758 415.37 582.519 411.413 578.844C414.522 584.215 418.055 589.443 422.154 594.107C417.207 591.422 412.685 588.171 408.728 584.356C413.109 588.878 417.49 593.542 421.871 598.064C415.653 595.944 409.859 592.694 404.913 588.595C408.022 592.694 411.555 596.227 415.512 599.477C410.565 595.803 405.337 592.552 399.966 589.585C405.054 593.683 410.141 597.781 415.229 601.879C409.152 598.346 402.934 595.096 396.716 591.987C401.097 594.107 405.054 596.933 408.304 600.466"
    fill="#3F2711" />
  <mask id="mask5_605_1012" style="mask-type:luminance" maskUnits="userSpaceOnUse" x="550" y="627" width="106"
    height="28">
    <path
      d="M577.746 654.168C577.746 654.168 595.128 655.016 615.478 653.32C635.828 651.483 641.199 646.96 655.472 643.003C655.472 643.003 621.131 622.229 589.758 629.437C560.081 639.046 550.896 653.744 550.896 653.744C550.896 653.744 570.398 653.602 577.746 654.168Z"
      fill="white" />
  </mask>
  <g mask="url(#mask5_605_1012)">
    <path
      d="M577.746 654.168C577.746 654.168 595.128 655.016 615.478 653.32C635.828 651.483 641.199 646.96 655.472 643.003C655.472 643.003 621.131 622.229 589.758 629.437C560.081 639.046 550.896 653.744 550.896 653.744C550.896 653.744 570.398 653.602 577.746 654.168Z"
      fill="white" />
  </g>
  <mask id="mask6_605_1012" style="mask-type:luminance" maskUnits="userSpaceOnUse" x="550" y="627" width="106"
    height="28">
    <path
      d="M577.746 654.168C577.746 654.168 595.128 655.016 615.478 653.32C635.828 651.483 641.199 646.96 655.472 643.003C655.472 643.003 621.131 622.229 589.758 629.437C560.081 639.046 550.896 653.744 550.896 653.744C550.896 653.744 570.398 653.602 577.746 654.168Z"
      fill="white" />
  </mask>
  <g mask="url(#mask6_605_1012)">
    <path
      d="M599.368 666.604C615.368 666.604 628.338 653.633 628.338 637.633C628.338 621.633 615.368 608.663 599.368 608.663C583.368 608.663 570.397 621.633 570.397 637.633C570.397 653.633 583.368 666.604 599.368 666.604Z"
      fill="#291205" />
    <path
      d="M599.368 649.787C606.08 649.787 611.521 644.346 611.521 637.633C611.521 630.921 606.08 625.48 599.368 625.48C592.656 625.48 587.214 630.921 587.214 637.633C587.214 644.346 592.656 649.787 599.368 649.787Z"
      fill="black" />
    <path
      d="M588.345 639.047C591.857 639.047 594.705 636.199 594.705 632.687C594.705 629.175 591.857 626.328 588.345 626.328C584.833 626.328 581.986 629.175 581.986 632.687C581.986 636.199 584.833 639.047 588.345 639.047Z"
      fill="white" />
    <path
      d="M611.381 642.297C613.098 642.297 614.49 640.905 614.49 639.188C614.49 637.471 613.098 636.079 611.381 636.079C609.663 636.079 608.271 637.471 608.271 639.188C608.271 640.905 609.663 642.297 611.381 642.297Z"
      fill="white" />
  </g>
  <mask id="mask7_605_1012" style="mask-type:luminance" maskUnits="userSpaceOnUse" x="550" y="627" width="106"
    height="28">
    <path
      d="M577.746 654.168C577.746 654.168 595.128 655.016 615.478 653.32C635.828 651.483 641.199 646.96 655.472 643.003C655.472 643.003 621.131 622.229 589.758 629.437C560.081 639.046 550.896 653.744 550.896 653.744C550.896 653.744 570.398 653.602 577.746 654.168Z"
      fill="white" />
  </mask>
  <g mask="url(#mask7_605_1012)">
    <path
      d="M632.861 618.273C632.861 618.273 648.547 641.873 628.904 665.756C698.15 633.676 663.244 630.426 632.861 618.273Z"
      fill="#FBC1B4" />
    <path
      d="M569.267 627.176C569.267 627.176 556.831 650.352 582.41 662.929C534.361 670.419 510.054 657.277 569.267 627.176Z"
      fill="#FBC1B4" />
  </g>
  <path
    d="M577.746 654.168C577.746 654.168 565.451 652.613 561.636 652.613C557.82 652.613 556.266 648.798 567.571 641.308C578.877 633.818 595.976 627.6 615.761 631.274C635.546 634.948 649.678 644.275 649.678 644.275L637.242 650.493C637.242 650.493 663.527 644.558 673.137 646.254C660.277 637.633 631.306 627.034 615.902 624.773C600.357 622.653 586.508 625.338 570.963 633.818C555.418 642.438 546.797 647.808 541.992 650.917C537.188 654.026 539.873 658.407 551.602 656.853C563.332 655.298 577.746 654.168 577.746 654.168Z"
    fill="black" />
  <mask id="mask8_605_1012" style="mask-type:luminance" maskUnits="userSpaceOnUse" x="267" y="621" width="116"
    height="30">
    <path
      d="M288.465 642.862C288.465 642.862 306.13 648.232 329.73 650.069C353.331 651.907 370.006 646.819 382.16 647.95C357.853 632.546 309.38 602.303 267.267 639.046C267.267 639.046 271.931 636.503 288.465 642.862Z"
      fill="white" />
  </mask>
  <g mask="url(#mask8_605_1012)">
    <path
      d="M288.465 642.862C288.465 642.862 306.13 648.232 329.73 650.069C353.331 651.907 370.006 646.819 382.16 647.95C357.853 632.546 309.38 602.303 267.267 639.046C267.267 639.046 271.931 636.503 288.465 642.862Z"
      fill="white" />
  </g>
  <mask id="mask9_605_1012" style="mask-type:luminance" maskUnits="userSpaceOnUse" x="267" y="621" width="116"
    height="30">
    <path
      d="M288.465 642.862C288.465 642.862 306.13 648.232 329.73 650.069C353.331 651.907 370.006 646.819 382.16 647.95C357.853 632.546 309.38 602.303 267.267 639.046C267.267 639.046 271.931 636.503 288.465 642.862Z"
      fill="white" />
  </mask>
  <g mask="url(#mask9_605_1012)">
    <path
      d="M318.283 661.234C334.283 661.234 347.254 648.263 347.254 632.263C347.254 616.263 334.283 603.293 318.283 603.293C302.284 603.293 289.313 616.263 289.313 632.263C289.313 648.263 302.284 661.234 318.283 661.234Z"
      fill="#291205" />
    <path
      d="M318.283 644.417C324.996 644.417 330.437 638.975 330.437 632.263C330.437 625.551 324.996 620.11 318.283 620.11C311.571 620.11 306.13 625.551 306.13 632.263C306.13 638.975 311.571 644.417 318.283 644.417Z"
      fill="black" />
    <path
      d="M307.402 633.676C310.914 633.676 313.761 630.829 313.761 627.317C313.761 623.805 310.914 620.958 307.402 620.958C303.89 620.958 301.042 623.805 301.042 627.317C301.042 630.829 303.89 633.676 307.402 633.676Z"
      fill="white" />
    <path
      d="M330.296 636.927C332.013 636.927 333.405 635.535 333.405 633.818C333.405 632.101 332.013 630.709 330.296 630.709C328.578 630.709 327.187 632.101 327.187 633.818C327.187 635.535 328.578 636.927 330.296 636.927Z"
      fill="white" />
  </g>
  <mask id="mask10_605_1012" style="mask-type:luminance" maskUnits="userSpaceOnUse" x="267" y="621" width="116"
    height="30">
    <path
      d="M288.465 642.862C288.465 642.862 306.13 648.232 329.73 650.069C353.331 651.907 370.006 646.819 382.16 647.95C357.853 632.546 309.38 602.303 267.267 639.046C267.267 639.046 271.931 636.503 288.465 642.862Z"
      fill="white" />
  </mask>
  <g mask="url(#mask10_605_1012)">
    <path
      d="M356.581 623.643C356.581 623.643 369.017 644.699 343.721 658.973C413.25 659.397 376.507 641.449 356.581 623.643Z"
      fill="#FBC1B4" />
    <path d="M291.15 617.99C291.15 617.99 277.583 633.394 292.281 650.493C240.84 650.776 244.797 633.959 291.15 617.99Z"
      fill="#FBC1B4" />
  </g>
  <path
    d="M351.776 650.493C351.776 650.493 356.581 649.363 363.082 647.808C369.441 646.254 367.322 643.003 357.712 637.633C348.102 632.263 322.382 621.523 302.032 626.328C281.682 631.133 274.757 637.633 274.757 637.633L288.748 643.003C288.748 643.003 259.354 638.764 252.288 639.188C252.288 639.188 273.768 629.013 288.183 623.077C302.597 617.142 327.328 614.457 357.853 630.002C388.944 645.547 399.684 647.102 400.108 650.352C400.39 653.602 369.441 648.232 351.776 650.493Z"
    fill="black" />
  <path
    d="M538.601 641.873C538.601 641.873 556.265 630.143 569.126 623.077C581.986 616.153 605.586 608.663 633.991 616.718C662.396 624.773 677.942 634.383 677.376 643.427C680.061 636.503 670.452 620.392 635.546 612.902C600.781 605.412 558.951 609.228 538.601 641.873Z"
    fill="#89442B" />
  <path
    d="M390.781 633.252C390.781 633.252 353.896 606.967 310.935 606.967C267.974 606.967 257.375 622.512 252.57 630.567C247.765 638.623 238.58 641.873 238.58 641.873C238.58 641.873 248.755 618.273 272.355 609.228C296.097 600.042 367.322 595.803 390.781 633.252Z"
    fill="#89442B" />
  <path
    d="M241.971 694.302C241.971 694.302 226.426 696.422 211.446 709.848C211.446 709.848 226.426 693.313 241.971 694.302Z"
    fill="#CE6A42" />
  <path
    d="M241.971 649.928C241.971 649.928 247.341 655.864 263.452 661.234C263.31 661.092 248.896 660.103 241.971 649.928Z"
    fill="#CE6A42" />
  <path d="M555.7 676.072C555.7 676.072 590.465 689.498 620.566 688.932C620.566 688.932 584.105 691.193 555.7 676.072Z"
    fill="#CE6A42" />
  <path
    d="M652.646 682.008C652.646 682.008 675.115 675.083 682.04 656.853C682.181 656.853 678.366 679.323 652.646 682.008Z"
    fill="#CE6A42" />
  <path
    d="M644.59 694.868C644.59 694.868 664.375 692.183 677.235 696.422C677.376 696.422 666.636 687.943 644.59 694.868Z"
    fill="#CE6A42" />
  <path
    d="M704.086 642.862C704.086 642.862 697.727 641.732 693.911 654.168C693.911 654.168 697.161 637.068 704.086 642.862Z"
    fill="#CE6A42" />
  <path
    d="M573.365 664.908C573.365 664.908 601.77 674.518 630.176 664.908C630.176 664.908 604.456 676.638 573.365 664.908Z"
    fill="#CE6A42" />
  <path
    d="M286.346 653.037C286.346 653.037 324.361 674.518 365.061 659.396C365.061 659.538 330.296 671.833 286.346 653.037Z"
    fill="#CE6A42" />
  <path
    d="M412.261 667.593C412.261 667.593 405.337 681.584 367.322 695.433C367.322 695.433 402.086 678.757 412.261 667.593Z"
    fill="#CE6A42" />
  <path
    d="M256.951 690.628C256.951 690.628 263.876 688.508 277.866 696.987C291.857 705.608 334.112 715.783 356.016 700.803C356.016 700.803 329.307 712.533 302.456 703.488C275.747 694.302 267.691 686.247 256.951 690.628Z"
    fill="#CE6A42" />
  <path
    d="M512.88 857.102C512.88 857.102 522.49 847.775 532.806 843.112C543.123 838.448 548.917 831.665 548.917 831.665C548.917 831.665 537.187 828.556 512.88 857.102Z"
    fill="#562A1D" />
  <path
    d="M460.734 863.179C460.734 863.179 446.743 852.863 437.133 849.188C427.524 845.655 414.946 835.622 414.946 835.622C414.946 835.622 435.438 836.046 460.734 863.179Z"
    fill="#562A1D" />
  <path
    d="M541.286 628.448C541.286 628.448 529.98 635.937 524.751 646.678C519.381 657.418 520.512 672.963 520.512 672.963C520.512 672.963 516.696 660.103 519.381 649.928C522.066 639.753 530.121 629.578 541.286 628.448Z"
    fill="#B25434" />
  <path
    d="M414.381 633.818C414.381 633.818 430.915 641.873 429.926 664.343C429.926 664.343 434.166 633.818 414.381 633.818Z"
    fill="#B25434" />
  <path
    d="M547.504 776.268C547.504 776.268 549.906 783.192 550.754 797.748C551.602 812.304 550.189 828.839 547.221 836.328C547.221 836.328 550.33 833.643 551.32 817.533C552.309 801.847 551.037 786.443 547.504 776.268Z"
    fill="#B25434" />
  <path
    d="M415.935 781.638C415.935 781.638 412.261 785.736 412.12 801.846C411.978 817.957 413.674 835.763 421.305 842.122C421.305 842.122 411.837 840.709 410.848 813.859C409.859 787.149 413.816 782.768 415.935 781.638Z"
    fill="#B25434" />
  <path
    d="M548.917 831.806C548.917 831.806 538.883 828.556 507.086 863.886C507.228 863.886 532.524 827.143 548.917 831.806Z"
    fill="#B25434" />
  <path
    d="M412.968 835.622C412.968 835.622 429.078 836.894 447.591 847.634C466.104 858.374 470.061 863.462 486.454 863.179C500.021 863.179 506.804 857.102 506.804 857.102C506.804 857.102 497.194 862.19 485.041 861.483C472.887 860.777 465.115 855.689 447.874 845.655C430.774 835.622 417.631 835.198 412.968 835.622Z"
    fill="#B25434" />
  <path
    d="M308.391 856.537C308.391 856.537 302.456 865.158 294.401 873.071C286.346 880.985 285.356 884.801 286.346 891.302C286.346 891.302 282.106 883.246 291.716 873.071C301.325 863.038 308.391 856.537 308.391 856.537Z"
    fill="#CE6A42" />
  <path
    d="M244.091 676.072C244.091 676.072 225.295 676.638 212.011 686.813C212.011 686.813 224.871 673.387 244.091 676.072Z"
    fill="#CE6A42" />
  <path
    d="M372.55 781.638C374.246 780.649 331.285 808.912 308.25 838.448C308.391 838.448 329.165 806.227 372.55 781.638Z"
    fill="#CE6A42" />
  <path
    d="M559.516 774.148C559.516 774.148 595.977 801.988 613.641 825.023C631.306 848.058 629.752 859.364 616.327 888.758C616.327 888.758 623.251 879.148 628.621 860.918C633.991 842.688 609.826 811.032 559.516 774.148Z"
    fill="#CE6A42" />
  <path
    d="M675.115 829.828C675.115 829.828 663.81 842.688 644.025 885.508C624.24 928.327 600.64 971.712 587.78 992.062C587.78 992.062 610.815 961.537 628.48 922.392C646.145 883.246 670.31 836.752 675.115 829.828Z"
    fill="#CE6A42" />
  <path
    d="M395.162 1012.41C395.162 1012.41 461.582 1044.49 509.206 1018.77C509.206 1018.91 468.506 1048.87 395.162 1012.41Z"
    fill="#CE6A42" />
  <path
    d="M304.717 892.856C304.717 892.856 340.471 931.436 355.45 950.656C370.43 969.875 404.771 1012.84 463.984 1009.16C523.197 1005.49 527.578 983.442 551.743 943.449C575.909 903.455 593.15 886.355 593.15 886.355C593.15 886.355 582.41 885.649 565.31 884.236C548.21 882.822 530.263 887.062 510.337 894.976C490.411 902.89 478.257 906.423 453.95 900.629C429.785 894.976 358.983 869.962 304.717 892.856Z"
    fill="#C25C3D" />
  <path
    d="M341.884 928.61C341.884 928.61 366.897 950.091 389.791 961.396C412.685 972.843 460.451 992.769 510.478 971.43C482.638 984.29 444.764 1002.1 409.152 987.116C373.539 972.136 356.864 940.622 341.884 928.61Z"
    fill="#DD6D4C" />
  <path
    d="M584.671 890.03C584.671 890.03 560.364 917.163 548.21 933.556C536.057 949.949 506.097 978.496 464.69 979.202C423.284 979.909 374.67 952.776 349.798 929.882C324.784 906.988 317.718 899.216 307.685 894.128C333.405 889.888 373.398 887.769 418.338 902.749C463.277 917.728 486.878 919.848 518.957 905.575C551.178 891.443 571.104 889.323 584.671 890.03Z"
    fill="#703226" />
  <path
    d="M350.646 913.913C350.646 913.913 345.276 895.117 357.005 892.432C368.735 889.747 418.621 905.292 442.645 911.652C466.81 918.011 492.955 918.576 515.424 909.532C537.894 900.487 541.144 903.173 535.209 921.261C509.772 943.307 415.511 954.613 350.646 913.913Z"
    fill="#CF694C" />
  <path
    d="M463.278 933.839C463.278 933.839 465.821 923.523 480.377 920.979C495.074 918.435 498.183 926.632 498.183 932.002C498.183 932.002 500.303 921.968 508.924 918.859C517.544 915.609 518.957 927.48 518.957 927.48C518.957 927.48 522.49 917.163 531.818 913.489C541.145 909.956 537.188 925.925 536.481 933.415C535.774 940.905 532.948 945.851 526.871 947.688C520.795 949.525 519.381 945.568 519.381 945.568C519.381 945.568 516.131 954.472 507.652 958.005C499.031 961.537 496.629 957.298 496.629 957.298C496.629 957.298 496.205 967.614 479.105 968.745C462.006 969.875 461.299 966.908 460.875 963.799C459.038 971.006 449.146 971.995 436.992 968.745C424.839 965.494 422.295 962.385 422.719 957.015C420.175 963.799 393.748 957.015 393.466 942.742C393.466 942.742 392.335 950.656 382.726 948.112C373.116 945.568 369.865 937.796 369.159 929.882C369.159 929.882 356.299 934.546 352.059 923.523C347.82 912.5 348.102 900.629 354.179 896.813C360.256 892.856 367.322 908.967 367.322 908.967C367.322 908.967 368.028 902.607 377.355 900.77C386.682 898.933 394.879 921.544 394.879 921.544C394.879 921.544 397.423 909.108 408.022 910.521C418.621 911.934 424.132 923.664 424.839 928.327C424.839 928.327 429.502 914.761 444.482 917.305C459.321 919.566 463.278 933.839 463.278 933.839Z"
    fill="#FEFEFE" />
  <path
    d="M40.0258 546.482C40.0258 546.482 33.1012 572.768 22.9262 591.422C12.7512 610.076 8.93555 625.763 8.93555 625.763C8.93555 625.763 11.6206 608.098 10.4901 579.692C9.50083 551.287 4.13069 493.487 40.0258 546.482Z"
    fill="#B25434" />
  <path
    d="M70.5508 599.618C70.5508 599.618 77.4755 617.283 86.0959 623.784C94.7164 630.285 77.4754 650.069 77.4754 650.069C77.4754 650.069 78.0407 638.764 71.54 630.85C65.1807 622.795 53.8751 642.156 51.7553 652.331C49.6355 662.506 57.6907 661.94 70.5508 663.071C83.4109 664.201 80.1605 678.616 85.5306 688.226C90.9008 697.835 81.2911 705.325 72.1053 696.846C63.0609 688.226 55.9949 675.931 43.7001 674.942C31.4053 673.952 8.37024 664.767 23.3501 631.557C38.4713 597.923 59.8105 586.758 70.5508 599.618Z"
    fill="#B25434" />
  <path
    d="M720.337 582.236C720.337 582.236 723.164 635.796 723.87 656.429C724.577 677.203 715.957 700.662 715.957 700.662C715.957 700.662 715.391 607.25 720.337 582.236Z"
    fill="#B25434" />
</svg>
