<svg xmlns="http://www.w3.org/2000/svg" width="757" height="1148" fill="none" viewBox="0 0 757 1148"><mask id="a" width="727" height="980" x="3" y="165" maskUnits="userSpaceOnUse" style="mask-type:luminance"><path fill="#fff" d="M722.457 560.049s2.827 44.939 6.36 73.486-4.947 67.833-17.807 90.021c0 0 2.12 39.993-10.74 77.16s-60.626 127.046-92.847 176.367c-32.221 49.317-39.287 66.417-52.147 105.707s-35.047 62.89-102.88 62.18c-67.834-.71-102.881-5.65-147.82-60.63-44.94-54.97-135.667-149.229-165.627-204.203-29.959-54.973-28.546-114.186-28.546-114.186s-38.863 17.524-67.834-31.797C13.6 684.834 3 664.484 3 601.314s1.13-108.109 42.82-105c4.24-108.11 51.44-278.541 267.8-322.35s429.894 73.062 408.837 386.085"/></mask><g mask="url(#a)"><path fill="#F4A571" d="M722.457 560.049s2.827 44.939 6.36 73.486-4.947 67.833-17.807 90.021c0 0 2.12 39.993-10.74 77.16s-60.626 127.046-92.847 176.367c-32.221 49.317-39.287 66.417-52.147 105.707s-35.047 62.89-102.88 62.18c-67.834-.71-102.881-5.65-147.82-60.63-44.94-54.97-135.667-149.229-165.627-204.203-29.959-54.973-28.546-114.186-28.546-114.186s-38.863 17.524-67.834-31.797C13.6 684.834 3 664.484 3 601.314s1.13-108.109 42.82-105c4.24-108.11 51.44-278.541 267.8-322.35s429.894 73.062 408.837 386.085"/></g><mask id="b" width="727" height="980" x="3" y="165" maskUnits="userSpaceOnUse" style="mask-type:luminance"><path fill="#fff" d="M722.457 560.049s2.827 44.939 6.36 73.486-4.947 67.833-17.807 90.021c0 0 2.12 39.993-10.74 77.16s-60.626 127.046-92.847 176.367c-32.221 49.317-39.287 66.417-52.147 105.707s-35.047 62.89-102.88 62.18c-67.834-.71-102.881-5.65-147.82-60.63-44.94-54.97-135.667-149.229-165.627-204.203-29.959-54.973-28.546-114.186-28.546-114.186s-38.863 17.524-67.834-31.797C13.6 684.834 3 664.484 3 601.314s1.13-108.109 42.82-105c4.24-108.11 51.44-278.541 267.8-322.35s429.894 73.062 408.837 386.085"/></mask><g fill="#F09965" mask="url(#b)"><path d="M410.283 831.806c14.838 3.816 29.677 7.49 44.374 11.306 6.501 1.696 13.567 3.25 19.926.848 8.762-3.251 13.143-13.426 12.86-22.753-.282-9.327-4.098-18.089-7.348-26.709-10.317-26.71-16.111-55.115-17.524-83.661-.424-7.49-3.674-35.613 3.109-39.287 3.392-1.837 9.327 4.946 14.556 2.12 4.381-2.261 6.218-8.479 6.077-13.143-.283-5.653-2.544-10.882-4.381-16.11-12.295-34.2-5.512-72.78 9.044-106.131s36.178-63.029 55.115-93.978c10.033-16.393 19.643-34.764 17.523-53.842-2.402-20.35-18.23-37.167-36.46-46.353-18.372-9.186-39.146-12.012-59.354-14.697-38.58-5.229-77.019-10.317-115.599-15.546-21.198-2.826-43.668-5.511-63.17 3.251-39.428 17.806-50.734 75.04-91.575 89.031-6.501 2.261-13.567 3.25-19.078 7.207-5.512 3.957-8.904 10.175-11.589 16.252-9.609 21.057-15.403 43.526-20.35 66.138-14.98 68.963-22.187 139.623-21.48 210.142-7.914-27.699-18.796-54.408-32.504-79.846-1.837 20.067-1.554 40.841 5.936 59.637 6.5 16.393 18.371 27.416 26.568 42.254 9.892 17.665 16.675 37.309 23.176 56.387 13.002 37.873 23.318 76.878 41.407 112.773 14.556 28.829 33.775 54.832 52.853 80.835 24.449 33.069 48.614 66.139 77.161 95.819 6.5 6.78 13.001 13.42 20.208 19.36 22.188 18.08 51.017 27.98 79.563 27.13-23.741-8.34-47.624-20.49-61.05-41.69-4.522-7.07-7.631-14.84-10.74-22.61-8.338-21.06-16.817-42.11-25.155-63.171 3.109 7.631 19.644 17.101 25.579 23.461 7.349 7.77 13.849 16.39 20.633 24.59 14.555 17.8 31.938 31.23 56.527 29.25-27.274-14.41-39.569-46.07-49.744-75.181 18.937 10.321 38.156 20.911 59.213 25.441 21.056 4.52 44.657 2.4 61.756-10.74-28.122 13-65.572-.71-78.715-28.692 48.756-8.479 94.826-31.09 131.428-64.441-16.535 5.087-35.048 6.641-52.289 8.337-14.697 1.555-30.101 1.696-43.667-3.957-8.621-3.533-16.252-9.327-24.307-14.132-13.143-7.631-27.84-12.718-42.82-14.697 19.926-4.805 41.124-4.946 61.05-.424-23.459-11.447-42.537-31.514-52.995-55.397 11.447.565 22.894 2.968 33.493 7.207 13.425 5.371 25.72 13.426 39.569 17.665 22.187 6.784 47.201 2.544 66.279-10.457s32.08-34.482 35.471-57.517c.566 10.599 1.131 21.48 5.936 31.09 4.663 9.468 14.556 17.382 25.155 16.252-2.827-10.882-10.317-19.926-17.383-28.547-12.719-15.262-25.296-30.525-38.015-45.787 15.404 13.708 34.906 17.947 51.865 29.677 16.958 11.729 32.786 28.122 35.188 48.614 3.109 25.296-14.273 47.907-30.525 67.409 3.392-12.436 6.783-25.014 10.034-37.45-12.86 11.306-18.654 28.547-21.622 45.364s-3.392 34.058-7.914 50.592c14.273-18.089 24.166-38.156 36.602-57.375 12.153-18.796 8.338-36.037 15.121-56.811 6.642-20.491 27.133-33.775 35.471-53.701 5.653-13.708 4.946-29.112 3.816-43.951-.707-8.62-1.555-17.665-6.36-25.013-5.511-8.621-15.686-13.284-25.72-14.697-10.175-1.414-20.35 0-30.525 1.554-3.391.565-7.207 1.272-9.186 4.098-2.543 3.816-.282 8.762 1.838 12.719a7121 7121 0 0 1 24.872 44.657c-19.926 1.555-40.276-3.533-57.235-14.273 12.437 11.729 23.035 25.155 31.373 39.993-18.089-11.164-35.471-23.459-52.147-36.743-7.348-5.794-14.555-12.012-19.36-20.067-4.24-7.208-6.36-15.545-7.773-23.742-3.957-22.187-4.098-44.939-.565-67.127 12.295 10.741 27.981 20.209 43.526 24.873-4.098-5.229-8.055-10.458-12.153-15.687 26.85 19.785 65.572 22.046 94.542 5.37-23.741 7.066-50.168 4.523-72.072-6.924 5.37 8.479 12.436 15.827 20.774 21.48-24.307-12.295-48.19-25.72-71.508-40.135 17.241-26.285 47.342-43.667 78.715-45.646s63.311 11.73 83.802 35.613c1.837-14.697-8.338-28.971-21.48-35.754-13.284-6.783-28.829-7.207-43.527-5.511-32.927 3.533-64.583 16.817-90.303 37.732 19.785-40.983 62.887-70.519 108.251-71.084 45.505-.565 90.586 29.395 104.718 72.638 7.772 24.025 6.359 49.886 4.239 75.182-2.968 34.624-6.925 69.388-16.252 102.881-26.144 94.684-92.14 173.54-125.209 265.962-5.652 15.69-10.457 32.08-21.339 44.66s-29.677 20.07-44.374 12.43c0-39.42 6.359-78.85 18.937-116.16-17.948 17.52-28.688 42.25-29.395 67.41 10.599-23.18 23.035-45.51 37.167-66.56-10.881 20.49-12.295 44.51-16.817 67.27-4.522 22.75-13.99 46.77-34.199 58.22-14.697 8.2-32.362 8.34-49.321 7.91-32.927-.7-65.713-2.4-98.641-4.94-33.775-2.69-68.257-6.5-98.499-21.77-24.449-12.43-44.799-31.79-63.311-52-70.377-76.74-121.394-171.14-147.114-272.042-6.925-27.416-17.524-49.32-24.448-76.878 5.229 9.61 13.001 17.948 22.328 23.883 3.392 2.12 7.632 3.957 11.165 2.403 4.946-2.12 5.37-8.762 6.076-13.991 1.837-12.719 9.61-24.448 20.774-30.949-9.327 4.664-19.784-3.25-27.84-9.892-8.196-6.501-21.622-11.447-27.84-3.109-2.26 2.968-2.685 6.924-2.967 10.599-.707 15.262 2.543 30.525 9.468 44.091-12.86-16.11-25.861-32.503-34.058-51.44s-11.164-40.983-3.25-60.202c6.218-15.262 18.513-27.133 27.698-40.841 9.186-13.708 15.122-32.08 7.208-46.494-29.819 39.286-43.103 90.727-36.178 139.623-37.732-60.343-24.872-137.928-10.882-207.739 8.338-41.266 16.817-82.955 35.895-120.404 47.06-92.565 151.636-143.864 254.658-157.572s207.174 3.533 310.479 13.708c35.754 3.533 71.649 6.218 106.837 13.002 23.035 4.522 47.908 12.436 60.061 32.645 7.773 13.142 8.762 29.111 9.186 44.232 2.826 100.479-4.805 201.098-22.894 300.022-16.393-41.124-66.137-62.464-109.664-54.267-43.385 8.055-79.421 40.417-101.467 78.715-22.894 39.852-31.09 94.543-.848 129.166 6.359 7.348 14.273 13.567 18.372 22.328 10.033 21.622-7.632 46.212-26.851 60.344-8.903 6.5-18.654 12.295-29.395 14.98-31.796 7.49-65.854-10.175-92.281-29.395"/><path d="M224.73 613.185c-9.751 12.436-19.502 25.014-29.253 37.45 26.286-3.533 49.462 20.208 76.03 19.784-3.957-6.218-9.186-11.588-15.262-15.827 26.426 9.892 53.842 16.817 81.682 20.491-20.915 2.261-42.254.707-62.604-4.522 5.935 4.522 12.012 9.185 17.947 13.708-17.241-5.936-34.764-11.871-52.853-12.295-18.23-.424-37.45 5.794-48.473 20.209 14.415-3.109 28.971-6.36 43.385-9.469-16.958 7.631-30.525 22.753-36.177 40.559 15.545-17.806 44.798-18.654 64.583-6.077 6.783 4.381 12.86 10.034 19.926 13.849 12.294 6.642 26.992 7.349 40.841 6.218 21.763-1.837 43.244-7.772 62.746-17.523 9.044-4.522 18.513-9.892 28.405-8.479s18.23 14.414 11.306 21.763c10.033-15.263 19.926-31.373 21.621-49.462 1.555-17.241-4.522-34.058-6.642-51.299-1.271-10.034-1.271-20.209-3.674-29.96-4.805-18.795-19.078-34.058-35.612-44.233s-35.33-15.827-53.984-20.915c-20.35-5.653-40.983-10.74-62.04-11.588-21.056-.848-42.819 2.826-60.767 13.708-29.394 17.948-41.407 46.635-54.408 76.878-1.696 4.522 45.222 7.348 53.277-2.968m182.302 188.803c-3.391 8.338.424 17.947 6.077 24.872s13.284 12.012 19.078 18.796c10.599 12.153 15.122 28.263 19.361 43.809-20.067-5.795-32.362-26.568-51.44-35.048-13.002-5.794-28.405-5.37-41.831-.706-13.566 4.663-25.437 13.142-35.895 22.752 11.73 7.49 24.59 13.002 38.156 16.535 2.685 33.916 24.873 62.887 46.071 89.455a722 722 0 0 1-87.76-56.104c-4.239-3.109-10.599-6.218-13.99-2.261-2.262 2.544-1.414 6.501-.566 9.751 4.664 17.806 9.469 35.471 14.132 53.277a5280 5280 0 0 0-23.035-37.167c-7.348-12.012-14.838-24.024-20.209-37.025-8.337-20.209-11.164-42.679-8.337-64.442-12.578 6.501-17.1 22.328-17.1 36.46s3.25 28.406.707 42.255c-9.045-16.535-17.524-33.352-25.297-50.451-4.239-9.186-8.196-18.796-7.772-28.688.989-20.915 20.915-35.613 39.993-44.233 32.504-14.556 67.975-20.774 101.044-33.917 12.718-4.946 25.154-11.023 38.58-13.142 13.425-2.12 28.546.565 37.732 10.74 8.903 9.751 11.023 24.872 10.74 37.591-8.337-9.893-30.807-21.763-38.439-3.109"/></g><mask id="c" width="727" height="980" x="3" y="165" maskUnits="userSpaceOnUse" style="mask-type:luminance"><path fill="#fff" d="M722.457 560.049s2.827 44.939 6.36 73.486-4.947 67.833-17.807 90.021c0 0 2.12 39.993-10.74 77.16s-60.626 127.046-92.847 176.367c-32.221 49.317-39.287 66.417-52.147 105.707s-35.047 62.89-102.88 62.18c-67.834-.71-102.881-5.65-147.82-60.63-44.94-54.97-135.667-149.229-165.627-204.203-29.959-54.973-28.546-114.186-28.546-114.186s-38.863 17.524-67.834-31.797C13.6 684.834 3 664.484 3 601.314s1.13-108.109 42.82-105c4.24-108.11 51.44-278.541 267.8-322.35s429.894 73.062 408.837 386.085"/></mask><g fill="#E68253" mask="url(#c)"><path d="M307.967 721.294c29.536 5.229 56.669-15.262 83.379-29.111 7.772-4.099 16.252-7.914 21.622-14.839 5.511-6.925 6.642-18.23-.142-23.883 9.61 6.783 15.687 18.372 15.404 30.242 12.154-13.142 9.186-35.329-1.978-49.32-11.306-13.991-28.547-21.481-45.505-27.275-24.024-8.196-49.179-13.99-74.475-12.577-25.297 1.413-50.875 10.881-67.975 29.536-6.783 7.348-13.001 16.534-22.611 19.219 5.37 4.664 13.849 3.957 20.208.707 6.36-3.251 11.306-8.621 16.818-13.143 19.36-16.111 45.928-22.47 70.942-19.22s48.331 15.546 66.985 32.504c-17.665-11.871-36.884-22.046-57.658-26.568s-43.385-3.25-62.322 6.501c-14.838 7.631-27.133 20.208-42.82 26.002 10.741 7.773 23.459 13.002 36.602 14.98-5.229-5.37-10.316-10.74-15.545-16.11 21.622 0 42.113 8.338 62.746 14.556 20.632 6.218 43.243 10.599 63.452 2.967-26.851 13.991-59.354 16.676-88.183 7.349 15.121 12.86 34.764 20.209 54.549 20.35-17.241 2.402-35.188.424-51.581-5.511-14.132-5.229-27.416-13.426-42.396-15.122s-30.667 3.675-41.407 14.274c15.121-9.327 34.906-10.741 51.158-3.675-17.948-7.772-45.505 19.22-54.126 32.08 8.621-13.143 40.7-19.785 54.55-15.687 17.382 5.088 32.079 17.524 50.309 20.774m-218.337-.282c13.001 1.13 27.556 5.794 32.644 17.806 4.098 9.751.424 20.915-1.978 31.232-7.49 30.525-4.805 62.604.282 93.553-.989-28.123-17.241-55.397-41.406-69.67-10.175-6.077-21.764-10.034-30.667-17.807-14.556-13.001-19.22-33.916-22.328-52.288 7.348 19.643 16.534 38.156 39.71 39.569 11.871.707 28.547-.847 36.32-10.881 7.914-10.316 2.119-30.242-12.578-31.514"/><path d="M593.009 549.732c18.371-8.761 44.939-11.305 59.637-26.144 9.044-9.044 11.305-22.611 12.718-35.329a505 505 0 0 0 2.968-58.507c-.283-26.85-3.25-56.104-21.904-77.16-21.057-23.742-65.149-24.872-94.826-29.536-71.649-11.023-143.156-22.046-214.805-33.069-28.264-4.38-60.344-7.772-82.672 10.175-18.513 14.98-24.448 40.135-33.069 62.464-8.62 22.187-25.579 45.646-49.462 45.504.848-5.652 1.696-11.446 2.544-17.099-13.708 8.338-18.795 25.437-22.47 41.124-20.35 87.335-29.818 177.214-28.264 266.952-12.012-29.112-24.165-58.082-36.177-87.194-4.664 29.253-3.533 59.354 3.532 88.042-13.707 8.762-25.578-20.915-41.689-18.513-8.903 1.272-12.718 14.697-5.935 20.491-20.35-13.001-31.938-38.438-28.405-62.321s22.046-44.94 45.222-51.441c-5.229-21.198-14.839-41.265-28.123-58.506 13.284 44.233-35.753 85.357-33.634 131.427-6.783-51.723-13.566-104.859-.565-155.31 9.044-35.047 27.133-66.985 45.505-98.217 52.853-89.738 113.338-180.889 205.054-230.35 91.999-49.745 203.642-50.169 305.957-27.982 67.551 14.556 138.634 42.82 172.41 103.022 37.591 66.703 17.806 149.092 19.784 225.546.99 40.135 8.197 79.987 9.751 120.121 1.414 40.135-3.391 81.966-24.589 116.165-7.207 11.588-4.24 26.992-6.218 40.559-9.186 62.463-39.994 119.414-72.214 173.681s-66.845 108.113-85.216 168.593c-3.25 10.74-6.077 21.76-12.154 31.09-16.675 25.44-56.245 42.4-85.356 46.5-24.873 3.39-50.169-.29-75.041-3.96-36.743-5.51-74.051-11.02-107.827-26.85 15.687-1.7 27.981-3.96 43.809-3.11-23.741-29.4-33.775-68.54-59.495-96.1 40.276 23.6 67.833 67.69 112.207 82.39 22.894 7.49 47.625 6.22 71.649 4.81 29.253-1.7 58.224-3.4 74.9-30.81 7.348-12.16 11.446-26 16.251-39.43 21.057-59.78 60.909-107.685 81.824-167.605 9.186-26.285 22.611-46.494 39.994-68.116 28.546-35.471 37.025-77.584 15.404-118.991-4.381-8.479-15.263-10.033-24.449-7.913s-17.523 7.489-26.426 10.598c-19.644 6.784-42.679 2.544-58.365-10.881 12.86.282 25.72-.989 38.58-2.261 12.436-1.272 24.731-2.403 37.167-3.675 14.838-1.413 29.96-2.967 43.244-9.468-17.383-1.837-35.048-.565-52.006 3.533 10.599-3.674 19.785-11.164 25.579-20.774-36.602 9.751-76.03 8.479-111.925-3.674 15.545 16.534 37.591 26.85 60.202 28.264-18.654 1.837-37.732-1.414-54.691-9.186-3.957-1.837-9.609-3.533-12.012.141-.848 1.272-.989 2.827-1.13 4.381 0 30.666 12.012 56.952 36.036 76.313-12.153-1.555-20.491-8.621-34.058-7.49 12.86 14.556 28.405 26.285 42.537 39.286 14.273 13.143 27.558 28.123 33.917 46.353 1.554 4.24 2.544 8.762 2.402 13.284-.424 12.012-9.609 21.763-14.697 32.645 9.327-12.436 10.458-30.384 2.826-43.809-3.533-6.218-8.479-11.306-13.425-16.252-10.599-10.599-20.632-22.328-31.938-32.079-.565 18.513-6.501 39.71 10.034 53.418 4.522 3.675 10.175 8.056 9.185 13.708-.848 4.947-6.359 7.49-11.164 9.045-26.003 8.762-52.571 16.11-79.28 22.046-7.349 1.554-14.839 3.109-22.329 2.685-16.534-.989-30.948-11.023-44.515-20.774 11.023 1.413 22.328 1.13 33.21-.565-21.763-15.687-43.385-31.232-65.148-46.918 19.219 2.967 37.873 9.044 55.114 17.806 7.49 3.815 14.697 8.055 22.753 10.175 8.055 2.12 17.241 1.696 23.883-3.392 4.381-3.392 7.207-8.479 11.588-11.871 9.61-7.631 24.872-5.652 33.634-14.273 10.175-9.892 5.794-26.851.707-40.135.989 17.383-13.991 30.949-27.417 41.69-11.446-43.103-18.512-87.195-20.915-131.71-.706-11.447-.989-23.177 1.837-34.341 10.741-43.244 64.301-57.941 104.435-57.658-5.935 1.978-11.87 4.098-17.806 6.077 17.1-1.979 34.765-2.685 51.44 1.695 16.676 4.381 32.504 14.556 40.277 29.96-20.209-14.556-44.657-24.024-69.53-24.307-25.013-.282-50.309 8.903-67.55 26.992 19.219-17.665 46.211-26.568 72.214-23.741 26.003 2.826 50.451 17.099 65.572 38.438 12.436-11.729 13.567-33.351 2.403-46.352-8.197-9.469-20.916-13.567-33.21-15.828-50.31-9.044-104.577 8.762-139.765 45.787 29.111-30.383 41.265-72.638 81.965-91.999"/><path d="M437.981 783.758c-8.338-9.893-19.361-20.774-33.069-19.361-5.37.565-10.316 3.109-14.979 5.653-45.364 23.883-93.837 50.733-113.056 94.825 8.762-13.143 21.057-24.307 35.33-32.362-5.653 13.284-16.817 24.024-24.731 36.319s-12.295 28.405-3.674 40.417c-1.414-16.393 13.708-29.394 24.307-42.82 8.62-11.022 14.697-23.459 23.6-34.199 11.588-14.132 33.917-30.666 52.853-35.895 25.721-6.925 14.274 21.904 27.558 32.786-2.403-10.316-3.392-20.633.706-30.808 2.12-4.804 16.959-24.165 25.155-14.555"/><path d="M302.739 890.878c-1.838.565-4.24 1.978-3.533 3.815.141.424.565.848.847 1.272 31.656 32.645 73.911 54.549 118.709 61.757-6.501-.99-17.1-28.971-19.502-34.624-3.675-8.62-4.805-25.013-11.588-31.372-7.773-7.49-29.112-6.643-39.287-6.784a146.9 146.9 0 0 0-45.646 5.936m153.755 135.812c25.438 1.13 53.136-9.61 64.866-32.225-26.427 12.715-58.082 13.995-85.498 3.392 23.035 1.695 46.494-5.653 64.441-20.068 16.535-13.284 27.84-31.514 40.559-48.472s27.84-33.352 47.907-39.994c-15.262 13.002-22.752 33.21-26.85 52.854-4.099 19.784-5.512 40.134-11.73 59.213-6.359 19.08-18.654 37.59-37.45 44.8 7.066-6.64 12.013-15.41 14.274-24.73-1.131 4.66-29.677 8.62-34.058 9.32-12.436 1.84-25.014 2.27-37.45 1.13-26.427-2.26-54.125-9.18-74.051-27.84 20.067 10.6 52.429 21.63 75.04 22.62m37.591 18.23c-13.001 7.91-28.264 12.01-43.526 11.73-13.708-.29-29.253-2.27-42.396-5.94 9.468-3.67 22.47-3.11 32.645-3.11 14.414 0 40.559 5.09 53.277-2.68M240.982 861.625a152.2 152.2 0 0 1 2.968 33.916c-3.957-6.783-7.914-13.566-11.73-20.491-2.826-4.805-5.652-9.751-6.924-15.121-3.251-12.578 4.522-22.894 16.958-25.579-6.501 1.413-1.978 24.165-1.272 27.275m66.137-281.509c14.839 1.272 29.112 6.36 43.244 11.306l70.377 25.013c-2.685-9.892.99-20.915-2.119-30.666-4.24-13.001-18.513-19.361-31.232-24.024-11.306-4.24-22.47-8.479-33.775-12.719-19.22-7.207-38.581-14.415-58.789-17.1-20.35-2.685-41.831-.565-59.355 10.175-15.121 9.186-25.72 23.883-34.34 39.146-6.077 10.74-14.556 22.187 2.402 21.48 35.471-1.413 66.279-25.72 103.587-22.611m224.133 138.352c4.805 6.218 7.914 13.567 12.86 19.643 9.186 11.306 23.318 16.959 37.026 22.188 6.077 2.261 13.991 4.239 18.23-.707-4.098-8.762-11.023-15.828-16.958-23.459-10.599-13.425-18.513-29.112-21.198-45.788-.283-1.978-.565-4.239.565-6.076 2.261-3.533 7.49-2.261 11.447-.99 10.882 3.816 22.329 5.936 33.917 6.36-20.209-4.805-40.7-15.263-57.235-27.699-1.554-1.13-3.25-2.402-5.228-2.261-1.696.141-3.109 1.272-4.381 2.403-5.512 4.946-10.599 10.598-13.143 17.523-5.511 14.697-5.229 26.71 4.098 38.863"/></g><path stroke="#000" stroke-miterlimit="10" stroke-width="5" d="M722.457 560.049s2.827 44.939 6.36 73.486-4.947 67.833-17.807 90.021c0 0 2.12 39.993-10.74 77.16s-60.626 127.046-92.847 176.367c-32.221 49.317-39.287 66.417-52.147 105.707s-35.047 62.89-102.88 62.18c-67.834-.71-102.881-5.65-147.82-60.63-44.94-54.97-135.667-149.229-165.627-204.203-29.959-54.973-28.546-114.186-28.546-114.186s-38.863 17.524-67.834-31.797C13.6 684.834 3 664.484 3 601.314s1.13-108.109 42.82-105c4.24-108.11 51.44-278.541 267.8-322.35s429.894 73.062 408.837 386.085Z"/><mask id="d" width="739" height="677" x="18" y="0" maskUnits="userSpaceOnUse" style="mask-type:luminance"><path fill="#fff" d="M534.927 4.38c-10.882-1.13-22.47.284-32.363-4.38 2.968 3.109 5.936 6.077 8.762 9.186C504.26 1.837 480.66.989 471.192.566c-13.85-.707-27.982.565-41.266 4.38 5.512-.282 11.023.424 15.969 3.11-13.142-2.827-26.709.282-39.993 1.412-19.502 1.555-39.287-1.13-57.658-7.913 3.674 1.837 6.642 5.228 7.772 9.185-25.013-4.38-51.864-6.076-77.302-6.218-25.437-.141-51.299 4.381-73.486 16.676 5.088-.424 10.175-.848 15.121-1.272-24.448 3.25-45.504 19.502-61.615 38.298-27.84 32.503-52.853 68.54-79.421 102.315a485 485 0 0 1 11.164-7.066c-20.633 20.209-35.754 46.211-42.961 74.334 2.26-6.077 5.794-11.588 10.175-16.252-12.295 35.895-23.742 74.334-31.232 111.501-12.153 60.768-11.023 124.22 3.533 184.422-1.413-2.261-.848-5.653 1.413-7.349-2.826 2.12 15.263 39.853 16.817 43.527 6.784 15.828 14.274 31.231 22.612 46.353-.425-3.675-.707-7.49-1.131-11.165 5.511 11.589 12.012 22.753 19.643 33.069-.141-2.685-.282-5.229-.424-7.914 9.469 18.089 15.122 38.015 16.817 58.224.142-3.109.424-6.077.566-9.186a100.7 100.7 0 0 0 8.761 23.035 12.12 12.12 0 0 1 0-8.903c.99 2.685 1.838 5.511 2.827 8.197.989-3.957 1.837-7.773 2.826-11.73.848 3.533 1.555 7.066 2.403 10.599-1.131-4.946 1.837-12.719 2.119-17.948.283-5.511-.565-10.316-1.554-15.969-2.261-13.708-3.533-27.557-3.533-41.548 1.837 3.533 3.533 7.208 5.37 10.741-.989-35.895.565-71.791 4.664-107.262-1.696 4.099-3.251 8.338-4.947 12.436 5.512-23.883 2.403-46.776 18.231-67.55-3.392.989-6.501 3.109-8.903 5.794 5.935-10.175 9.892-21.622 11.588-33.21-2.12 3.533-4.24 7.066-6.36 10.74 1.414-18.089 4.805-35.895 10.175-53.136 8.48 5.087 18.796 7.066 28.406 5.087-5.936 2.12-12.437 3.109-18.796 3.109 6.501 3.957 14.98 4.664 22.046 1.696-4.946 1.837-9.61 4.664-13.425 8.338 2.967-2.826 9.185-3.109 13.142-3.957-4.239 2.261-7.772 5.936-11.871 8.621 9.893-.142 20.774-.707 28.264-7.066 6.784-5.653 9.469-14.839 11.306-23.459 3.957-17.807 5.935-43.385 20.915-55.963.424 3.816-.424 8.197-.989 12.154 8.338-15.546 18.654-30.525 33.351-40.276 14.698-9.751 34.2-13.708 50.169-6.36-2.544-2.261-5.088-4.663-7.773-6.924 6.925 3.109 13.991 5.794 21.339 7.772-2.685-2.402-5.511-4.946-8.196-7.349 7.066 3.816 14.98 5.936 22.894 6.077-3.109-2.12-6.077-4.239-9.186-6.359 16.817 2.826 33.493 7.49 49.32 13.849-1.413-1.837-2.826-3.674-4.239-5.653 17.806 5.653 35.33 9.751 53.984 11.447-3.25-2.12-6.36-4.663-9.186-7.348 5.653 1.695 10.882 4.239 15.828 7.348-1.413-1.837-2.403-4.098-2.968-6.359 8.621 3.957 18.23 10.881 27.699 12.436l-5.512-8.903c1.414 2.261 14.698 5.653 17.948 6.783 6.501 2.403 12.86 2.685 19.643-.141-3.25 1.696-6.5 3.392-9.609 5.087 7.631.566 15.262.99 22.893 1.555-2.261.565-4.522 1.272-6.924 1.837 22.187 3.957 44.515 14.415 66.137 8.479-3.533 1.837-6.924 3.533-10.457 5.37 5.228-2.685 15.121-.282 20.915-.706 8.762-.566 16.817-1.979 25.72-.707-5.37.848-10.599 1.555-15.969 2.403 10.74.282 21.48 2.261 31.655 5.794-4.663-.566-9.468 0-13.849 1.696 6.925-2.686 14.415.989 21.198 4.239 17.524 8.621 33.21 17.806 50.451 27.275-3.816-2.12-8.338-2.827-12.577-2.12 4.946 2.544 9.468 5.653 13.708 9.186-2.685-.707-5.371-1.555-7.914-2.261 23.317 20.35 29.818 53.418 33.21 84.226a920 920 0 0 1 5.511 88.183c-1.554-3.391-2.967-6.783-4.522-10.175 5.512 32.08 14.273 62.322 16.958 94.967 2.12-13.991 3.109-27.275 5.229-41.407 9.61-64.441 17.524-129.307 25.862-193.89 5.511-42.678 7.631-86.629-2.827-128.459 2.544 2.967 4.946 5.935 7.49 8.903-2.12-18.513-4.098-37.026-6.218-55.539-2.685-24.731-5.653-49.885-15.969-72.638-7.349-16.252-22.328-36.178-38.863-44.092.707-9.61-2.826-19.36-9.468-26.285a43.2 43.2 0 0 1 1.978 25.014c.424-6.36-1.837-12.86-5.935-17.665 3.392 8.761 1.272 19.502-5.229 26.285.141-13.567-6.359-26.992-16.817-35.471-10.599-8.48-25.014-11.87-38.156-9.045 14.556.848 28.264 10.6 33.775 24.166-4.946-6.783-12.436-11.588-20.491-13.425 10.599 4.24 17.806 15.969 16.534 27.416-2.967-7.49-10.599-11.871-17.382-16.252s-13.849-10.599-13.849-18.654c-1.272 3.816-1.696 7.914-1.272 12.012-7.208-6.925-15.828-11.87-22.47-19.36-6.077-6.925-10.882-14.98-16.958-22.047-11.73-13.566-26.144-23.6-44.657-25.437"/></mask><g mask="url(#d)"><path fill="#1B130D" d="M534.927 4.38c-10.882-1.13-22.47.284-32.363-4.38 2.968 3.109 5.936 6.077 8.762 9.186C504.26 1.837 480.66.989 471.192.566c-13.85-.707-27.982.565-41.266 4.38 5.512-.282 11.023.424 15.969 3.11-13.142-2.827-26.709.282-39.993 1.412-19.502 1.555-39.287-1.13-57.658-7.913 3.674 1.837 6.642 5.228 7.772 9.185-25.013-4.38-51.864-6.076-77.302-6.218-25.437-.141-51.299 4.381-73.486 16.676 5.088-.424 10.175-.848 15.121-1.272-24.448 3.25-45.504 19.502-61.615 38.298-27.84 32.503-52.853 68.54-79.421 102.315a485 485 0 0 1 11.164-7.066c-20.633 20.209-35.754 46.211-42.961 74.334 2.26-6.077 5.794-11.588 10.175-16.252-12.295 35.895-23.742 74.334-31.232 111.501-12.153 60.768-11.023 124.22 3.533 184.422-1.413-2.261-.848-5.653 1.413-7.349-2.826 2.12 15.263 39.853 16.817 43.527 6.784 15.828 14.274 31.231 22.612 46.353-.425-3.675-.707-7.49-1.131-11.165 5.511 11.589 12.012 22.753 19.643 33.069-.141-2.685-.282-5.229-.424-7.914 9.469 18.089 15.122 38.015 16.817 58.224.142-3.109.424-6.077.566-9.186a100.7 100.7 0 0 0 8.761 23.035 12.12 12.12 0 0 1 0-8.903c.99 2.685 1.838 5.511 2.827 8.197.989-3.957 1.837-7.773 2.826-11.73.848 3.533 1.555 7.066 2.403 10.599-1.131-4.946 1.837-12.719 2.119-17.948.283-5.511-.565-10.316-1.554-15.969-2.261-13.708-3.533-27.557-3.533-41.548 1.837 3.533 3.533 7.208 5.37 10.741-.989-35.895.565-71.791 4.664-107.262-1.696 4.099-3.251 8.338-4.947 12.436 5.512-23.883 2.403-46.776 18.231-67.55-3.392.989-6.501 3.109-8.903 5.794 5.935-10.175 9.892-21.622 11.588-33.21-2.12 3.533-4.24 7.066-6.36 10.74 1.414-18.089 4.805-35.895 10.175-53.136 8.48 5.087 18.796 7.066 28.406 5.087-5.936 2.12-12.437 3.109-18.796 3.109 6.501 3.957 14.98 4.664 22.046 1.696-4.946 1.837-9.61 4.664-13.425 8.338 2.967-2.826 9.185-3.109 13.142-3.957-4.239 2.261-7.772 5.936-11.871 8.621 9.893-.142 20.774-.707 28.264-7.066 6.784-5.653 9.469-14.839 11.306-23.459 3.957-17.807 5.935-43.385 20.915-55.963.424 3.816-.424 8.197-.989 12.154 8.338-15.546 18.654-30.525 33.351-40.276 14.698-9.751 34.2-13.708 50.169-6.36-2.544-2.261-5.088-4.663-7.773-6.924 6.925 3.109 13.991 5.794 21.339 7.772-2.685-2.402-5.511-4.946-8.196-7.349 7.066 3.816 14.98 5.936 22.894 6.077-3.109-2.12-6.077-4.239-9.186-6.359 16.817 2.826 33.493 7.49 49.32 13.849-1.413-1.837-2.826-3.674-4.239-5.653 17.806 5.653 35.33 9.751 53.984 11.447-3.25-2.12-6.36-4.663-9.186-7.348 5.653 1.695 10.882 4.239 15.828 7.348-1.413-1.837-2.403-4.098-2.968-6.359 8.621 3.957 18.23 10.881 27.699 12.436l-5.512-8.903c1.414 2.261 14.698 5.653 17.948 6.783 6.501 2.403 12.86 2.685 19.643-.141-3.25 1.696-6.5 3.392-9.609 5.087 7.631.566 15.262.99 22.893 1.555-2.261.565-4.522 1.272-6.924 1.837 22.187 3.957 44.515 14.415 66.137 8.479-3.533 1.837-6.924 3.533-10.457 5.37 5.228-2.685 15.121-.282 20.915-.706 8.762-.566 16.817-1.979 25.72-.707-5.37.848-10.599 1.555-15.969 2.403 10.74.282 21.48 2.261 31.655 5.794-4.663-.566-9.468 0-13.849 1.696 6.925-2.686 14.415.989 21.198 4.239 17.524 8.621 33.21 17.806 50.451 27.275-3.816-2.12-8.338-2.827-12.577-2.12 4.946 2.544 9.468 5.653 13.708 9.186-2.685-.707-5.371-1.555-7.914-2.261 23.317 20.35 29.818 53.418 33.21 84.226a920 920 0 0 1 5.511 88.183c-1.554-3.391-2.967-6.783-4.522-10.175 5.512 32.08 14.273 62.322 16.958 94.967 2.12-13.991 3.109-27.275 5.229-41.407 9.61-64.441 17.524-129.307 25.862-193.89 5.511-42.678 7.631-86.629-2.827-128.459 2.544 2.967 4.946 5.935 7.49 8.903-2.12-18.513-4.098-37.026-6.218-55.539-2.685-24.731-5.653-49.885-15.969-72.638-7.349-16.252-22.328-36.178-38.863-44.092.707-9.61-2.826-19.36-9.468-26.285a43.2 43.2 0 0 1 1.978 25.014c.424-6.36-1.837-12.86-5.935-17.665 3.392 8.761 1.272 19.502-5.229 26.285.141-13.567-6.359-26.992-16.817-35.471-10.599-8.48-25.014-11.87-38.156-9.045 14.556.848 28.264 10.6 33.775 24.166-4.946-6.783-12.436-11.588-20.491-13.425 10.599 4.24 17.806 15.969 16.534 27.416-2.967-7.49-10.599-11.871-17.382-16.252s-13.849-10.599-13.849-18.654c-1.272 3.816-1.696 7.914-1.272 12.012-7.208-6.925-15.828-11.87-22.47-19.36-6.077-6.925-10.882-14.98-16.958-22.047-11.73-13.566-26.144-23.6-44.657-25.437"/></g><mask id="e" width="739" height="677" x="18" y="0" maskUnits="userSpaceOnUse" style="mask-type:luminance"><path fill="#fff" d="M534.927 4.38c-10.882-1.13-22.47.284-32.363-4.38 2.968 3.109 5.936 6.077 8.762 9.186C504.26 1.837 480.66.989 471.192.566c-13.85-.707-27.982.565-41.266 4.38 5.512-.282 11.023.424 15.969 3.11-13.142-2.827-26.709.282-39.993 1.412-19.502 1.555-39.287-1.13-57.658-7.913 3.674 1.837 6.642 5.228 7.772 9.185-25.013-4.38-51.864-6.076-77.302-6.218-25.437-.141-51.299 4.381-73.486 16.676 5.088-.424 10.175-.848 15.121-1.272-24.448 3.25-45.504 19.502-61.615 38.298-27.84 32.503-52.853 68.54-79.421 102.315a485 485 0 0 1 11.164-7.066c-20.633 20.209-35.754 46.211-42.961 74.334 2.26-6.077 5.794-11.588 10.175-16.252-12.295 35.895-23.742 74.334-31.232 111.501-12.153 60.768-11.023 124.22 3.533 184.422-1.413-2.261-.848-5.653 1.413-7.349-2.826 2.12 15.263 39.853 16.817 43.527 6.784 15.828 14.274 31.231 22.612 46.353-.425-3.675-.707-7.49-1.131-11.165 5.511 11.589 12.012 22.753 19.643 33.069-.141-2.685-.282-5.229-.424-7.914 9.469 18.089 15.122 38.015 16.817 58.224.142-3.109.424-6.077.566-9.186a100.7 100.7 0 0 0 8.761 23.035 12.12 12.12 0 0 1 0-8.903c.99 2.685 1.838 5.511 2.827 8.197.989-3.957 1.837-7.773 2.826-11.73.848 3.533 1.555 7.066 2.403 10.599-1.131-4.946 1.837-12.719 2.119-17.948.283-5.511-.565-10.316-1.554-15.969-2.261-13.708-3.533-27.557-3.533-41.548 1.837 3.533 3.533 7.208 5.37 10.741-.989-35.895.565-71.791 4.664-107.262-1.696 4.099-3.251 8.338-4.947 12.436 5.512-23.883 2.403-46.776 18.231-67.55-3.392.989-6.501 3.109-8.903 5.794 5.935-10.175 9.892-21.622 11.588-33.21-2.12 3.533-4.24 7.066-6.36 10.74 1.414-18.089 4.805-35.895 10.175-53.136 8.48 5.087 18.796 7.066 28.406 5.087-5.936 2.12-12.437 3.109-18.796 3.109 6.501 3.957 14.98 4.664 22.046 1.696-4.946 1.837-9.61 4.664-13.425 8.338 2.967-2.826 9.185-3.109 13.142-3.957-4.239 2.261-7.772 5.936-11.871 8.621 9.893-.142 20.774-.707 28.264-7.066 6.784-5.653 9.469-14.839 11.306-23.459 3.957-17.807 5.935-43.385 20.915-55.963.424 3.816-.424 8.197-.989 12.154 8.338-15.546 18.654-30.525 33.351-40.276 14.698-9.751 34.2-13.708 50.169-6.36-2.544-2.261-5.088-4.663-7.773-6.924 6.925 3.109 13.991 5.794 21.339 7.772-2.685-2.402-5.511-4.946-8.196-7.349 7.066 3.816 14.98 5.936 22.894 6.077-3.109-2.12-6.077-4.239-9.186-6.359 16.817 2.826 33.493 7.49 49.32 13.849-1.413-1.837-2.826-3.674-4.239-5.653 17.806 5.653 35.33 9.751 53.984 11.447-3.25-2.12-6.36-4.663-9.186-7.348 5.653 1.695 10.882 4.239 15.828 7.348-1.413-1.837-2.403-4.098-2.968-6.359 8.621 3.957 18.23 10.881 27.699 12.436l-5.512-8.903c1.414 2.261 14.698 5.653 17.948 6.783 6.501 2.403 12.86 2.685 19.643-.141-3.25 1.696-6.5 3.392-9.609 5.087 7.631.566 15.262.99 22.893 1.555-2.261.565-4.522 1.272-6.924 1.837 22.187 3.957 44.515 14.415 66.137 8.479-3.533 1.837-6.924 3.533-10.457 5.37 5.228-2.685 15.121-.282 20.915-.706 8.762-.566 16.817-1.979 25.72-.707-5.37.848-10.599 1.555-15.969 2.403 10.74.282 21.48 2.261 31.655 5.794-4.663-.566-9.468 0-13.849 1.696 6.925-2.686 14.415.989 21.198 4.239 17.524 8.621 33.21 17.806 50.451 27.275-3.816-2.12-8.338-2.827-12.577-2.12 4.946 2.544 9.468 5.653 13.708 9.186-2.685-.707-5.371-1.555-7.914-2.261 23.317 20.35 29.818 53.418 33.21 84.226a920 920 0 0 1 5.511 88.183c-1.554-3.391-2.967-6.783-4.522-10.175 5.512 32.08 14.273 62.322 16.958 94.967 2.12-13.991 3.109-27.275 5.229-41.407 9.61-64.441 17.524-129.307 25.862-193.89 5.511-42.678 7.631-86.629-2.827-128.459 2.544 2.967 4.946 5.935 7.49 8.903-2.12-18.513-4.098-37.026-6.218-55.539-2.685-24.731-5.653-49.885-15.969-72.638-7.349-16.252-22.328-36.178-38.863-44.092.707-9.61-2.826-19.36-9.468-26.285a43.2 43.2 0 0 1 1.978 25.014c.424-6.36-1.837-12.86-5.935-17.665 3.392 8.761 1.272 19.502-5.229 26.285.141-13.567-6.359-26.992-16.817-35.471-10.599-8.48-25.014-11.87-38.156-9.045 14.556.848 28.264 10.6 33.775 24.166-4.946-6.783-12.436-11.588-20.491-13.425 10.599 4.24 17.806 15.969 16.534 27.416-2.967-7.49-10.599-11.871-17.382-16.252s-13.849-10.599-13.849-18.654c-1.272 3.816-1.696 7.914-1.272 12.012-7.208-6.925-15.828-11.87-22.47-19.36-6.077-6.925-10.882-14.98-16.958-22.047-11.73-13.566-26.144-23.6-44.657-25.437"/></mask><g fill="#442B11" mask="url(#e)"><path d="M435.014 120.263c10.881-5.653 21.763-11.306 33.634-14.415 11.729-3.25 24.589-3.815 36.036.707-12.719-2.12-25.296-4.946-37.732-8.338 15.262 1.13 30.666 1.413 45.929.99-11.306-.142-22.611-1.555-33.634-4.099 21.056-6.783 44.233-6.925 65.289-.424-13.001-9.044-28.688-14.273-44.515-14.697 27.416-5.935 57.658 3.816 76.312 24.872-13.849-8.48-28.122-16.11-42.961-22.752 10.74 4.38 20.209 12.012 26.851 21.622-13.567-5.088-28.264-7.49-42.679-7.066 12.436-.707 25.155 3.391 34.906 11.023-15.404-5.371-32.079-6.784-48.19-4.24 20.209-3.533 40.841 15.404 59.92 7.914-20.633 2.968-42.114.565-61.474-6.925 16.534 12.86 36.177 21.481 56.81 24.731-11.447-1.837-20.633-.989-32.079-5.087-8.056-2.968-15.828-5.936-24.307-7.773-22.47-5.229-46.494-3.816-68.116 3.957m235.155 64.442c-2.968-4.523-7.349-8.056-12.436-9.893 6.359 2.12 12.295 5.37 17.665 9.327a40.5 40.5 0 0 1-11.164-15.545c7.49 4.098 14.414 9.469 20.35 15.545-1.555-6.359-3.816-12.718-6.784-18.513 7.49 6.784 17.807 10.175 27.84 9.186-4.522-4.239-9.044-8.479-13.566-12.86a58.3 58.3 0 0 1 20.774 12.154c-1.979-5.794-4.523-11.306-7.773-16.393 7.914 2.967 14.415 9.892 16.817 18.088-3.816-16.11-15.545-29.959-30.666-36.601 10.033 4.522 20.208 9.044 27.981 16.958-5.37-8.762-12.577-16.393-21.057-22.187 12.013-1.413 24.59 5.935 29.253 17.1-.565-8.762-5.228-16.817-10.74-23.601-8.62-10.457-22.046-19.361-35.047-15.545 12.577 1.555 24.448 7.631 32.927 16.958-9.044-4.946-19.784-6.924-29.959-5.652 6.642.424 13.284 2.261 19.219 5.228-8.762 1.555-17.806.707-26.144-2.119 6.077 2.543 12.154 5.228 18.372 7.772a131 131 0 0 0-21.057 1.272c7.066-.424 14.273 1.413 20.209 5.229-6.784 0-13.426.141-20.209.141 11.729.565 23.035 6.642 30.101 15.969-6.501-1.696-12.719-3.957-18.795-6.642a38 38 0 0 1 11.87 9.893c-7.207-3.816-14.414-7.49-21.622-11.306 5.371 6.359 11.589 12.154 18.513 16.958-9.327-3.815-18.513-8.055-27.557-12.577 4.381 4.098 8.621 8.197 13.001 12.153a46.54 46.54 0 0 0-25.013-9.751c9.186 1.414 17.806 6.36 23.742 13.567-6.501-5.511-14.839-8.903-23.459-9.327 6.783 2.261 13.001 6.077 18.23 10.882-7.208-2.827-14.556-5.653-21.763-8.48 3.674 4.947 8.761 8.904 14.273 11.447-6.501-2.119-12.578-5.794-17.524-10.599 2.544 4.805 6.36 8.903 10.74 12.154-7.489-5.794-17.806-8.621-27.133-6.784 5.229 2.262 10.458 4.523 15.545 7.208 3.675 1.696 20.35 6.5 22.046 9.186M178.943 382.834c6.5-6.076 9.892-14.838 12.718-23.317-3.957 7.631-10.457 13.849-18.23 17.665 15.828-15.545 25.438-37.167 26.144-59.354-1.554 15.121-9.892 29.253-22.187 38.014s-28.688 11.589-43.244 7.914c13.991 7.349 31.515 7.49 45.646.283-15.545 9.751-34.905 13.425-52.994 9.892 6.783 3.816 14.556 5.936 22.469 6.218-13.566 6.925-24.872 18.231-32.079 31.797 9.327-7.631 18.795-15.121 28.123-22.752-10.175 9.327-17.383 21.763-20.35 35.188 6.076-9.185 13.001-17.665 20.632-25.437-8.62 16.676-20.209 31.797-34.058 44.516 10.74-7.773 20.774-16.394 29.96-25.862-13.284 15.545-22.47 34.482-26.286 54.549 6.077-16.251 15.122-31.514 26.286-44.939-9.327 15.969-17.948 32.221-25.72 48.896 6.924-8.903 13.849-17.665 20.774-26.568-7.208 15.404-17.383 29.395-29.677 41.124 8.903-6.218 17.099-13.284 24.731-21.056-10.175 12.718-16.959 28.405-19.079 44.657a352 352 0 0 0 16.676-30.384c-6.501 16.676-13.567 33.21-21.057 49.603 9.045-10.882 16.818-22.752 23.318-35.33-8.903 15.263-14.697 32.504-16.958 50.027 5.229-9.892 10.599-19.926 15.828-29.818-14.132 20.208-8.197 47.624-1.696 71.366 3.957-53.984 21.339-105.989 38.58-157.43 3.533 10.882 7.207 21.763 10.74 32.645-5.652-17.1-8.196-35.189-13.849-52.429-1.696-5.229-7.349-14.698-3.816-20.209 3.533-5.37 13.708-4.805 18.655-9.469m-94.26-.141c.423-8.762 2.826-17.524 6.924-25.155-9.044 14.697-16.958 31.232-14.98 48.331.99-24.589 3.675-46.352 13.85-69.105-11.589 18.513-17.1 40.418-18.654 62.181-1.696 21.763.282 43.668 2.402 65.431-2.544-20.916.283-42.537 8.055-62.039.424 12.153-.141 24.448-1.554 36.601 4.663-13.425 7.913-27.274 9.468-41.406 1.13 14.132 3.533 28.122 6.783 41.971-5.935-24.448-4.098-69.529 16.817-86.204-9.468 8.479-18.654 18.371-22.893 30.383 1.837-11.871 7.066-23.176 14.838-32.362-8.762 6.925-18.937 20.35-21.056 31.373m-17.806-23.6c-.283-19.078 3.25-38.156 10.457-55.821-10.175 14.555-16.251 31.796-17.665 49.461-4.098-22.893.142-46.918 11.023-67.409s28.123-37.45 48.19-48.897c-24.024 16.676-42.396 41.266-51.723 68.964 8.62-20.915 24.872-38.439 44.94-48.755-17.665 11.588-31.514 28.829-39.004 48.755 6.076-16.251 25.296-27.84 41.83-29.959-11.164 7.348-20.632 15.545-28.122 26.709-11.023 16.676-15.404 37.308-19.926 56.952"/><path d="M55.995 293.521c-10.175 16.393-17.1 34.623-20.35 53.56 3.674-10.034 9.185-19.361 16.252-27.558-13.567 21.622-11.589 49.321-9.045 74.758-3.392-15.545-4.805-31.655-4.24-47.483-1.13 9.892-3.109 19.643-6.076 29.112.282-13.143-.566-26.427-2.685-39.428-5.512 19.784-5.794 41.124-.99 61.05-9.468-16.676-8.337-37.309-5.511-56.387 5.087-34.199 15.121-69.105 37.874-95.249-13.284 23.176-22.329 48.755-26.286 75.182 4.24-24.448 15.545-47.766 32.221-66.279-5.794 12.295-11.588 24.448-17.382 36.743 15.262-24.872 29.96-50.168 45.646-74.758-4.522 11.447-6.218 23.6-11.73 34.623-7.49 15.122-18.936 27.84-27.698 42.114"/><path d="M146.439 155.451c-15.828 20.35-33.493 39.287-52.712 56.387 10.175-12.012 18.795-25.155 25.861-39.287-18.089 14.556-33.775 35.471-43.526 56.528a123.4 123.4 0 0 1 19.926-41.407c-21.48 21.763-38.863 47.484-51.016 75.465 4.24-34.623 19.502-67.833 42.96-93.554-6.359 12.154-11.163 25.014-14.273 38.298 13.567-31.232 50.31-45.364 70.519-72.78-9.327 6.501-18.513 12.861-27.84 19.361 19.078-33.492 55.821-56.104 94.26-58.365-25.72 1.413-50.592 13.708-67.551 33.21 12.437-9.044 26.286-16.251 40.842-20.915-26.992 14.556-49.603 37.167-64.159 64.3 12.577-14.979 29.677-26.002 48.331-31.514-5.936 3.392-17.241 8.762-21.622 14.273"/><path d="M130.47 126.34c16.393-24.873 40.7-44.516 68.257-55.68-12.153 7.914-23.883 16.393-35.047 25.579 29.677-19.22 69.953-16.959 98.358-38.015l-52.146 13.142c16.11-7.772 32.927-14.414 50.027-19.643-34.765 4.522-72.356 10.316-96.804 35.471 13.99-19.22 32.927-34.764 54.408-44.657-53.984 21.622-97.793 67.551-116.73 122.524 4.381-24.165 15.262-47.2 31.09-65.996-13.001 15.121-26.992 29.253-42.113 42.396 20.633-20.774 35.33-46.777 54.973-68.54 51.865-57.517 139.765-79.563 212.686-53.277-40.276-12.72-84.933-11.165-124.361 4.24 30.242-8.904 62.887-9.61 93.412-2.12-37.026-5.088-75.606 2.967-107.403 22.47 21.481-8.056 44.94-11.165 67.834-9.045-25.438.706-50.734 7.49-72.921 19.784 34.058-7.772 69.105-11.446 104.011-10.599-12.86-5.228-26.851-7.49-40.7-6.642 33.917-8.196 71.084-2.826 101.326 14.698-20.633-9.186-43.809-12.72-66.42-10.175 16.252 2.402 32.362 4.804 48.614 7.066-30.808 2.685-61.474 5.37-92.282 8.055 17.806 2.26 36.178 1.696 53.702-2.12-16.818 1.696-31.515 13.284-48.19 16.534-14.98 2.827-30.243 3.25-45.223 6.501-30.525 6.36-79.845 20.209-98.358 48.049m274.584-69.388c8.196-11.588 19.784-20.774 32.927-26.286-14.838 8.338-19.361 27.275-21.763 44.233 7.066-16.958 20.491-31.09 36.884-39.004-8.055 6.925-14.273 16.11-17.665 26.144 5.229-8.479 13.85-14.273 22.47-19.36 10.882-6.501 22.894-12.437 35.613-12.154 10.881.141 21.198 4.946 30.949 9.468-20.633-14.98-49.038-18.512-72.639-9.044 17.948-11.306 41.124-13.708 60.909-6.218-21.622-8.762-46.635-8.762-68.116.141 14.98-8.762 32.786-12.436 50.027-10.316-34.906-4.381-80.128 0-89.596 42.396"/><path d="M584.953 78.715c-9.327-9.186-23.883-12.86-36.46-9.044 14.556 2.685 28.688 8.479 40.983 16.675-11.73-4.522-25.014-4.805-36.885-.848 22.611-3.957 46.918 4.522 62.04 21.764-6.642-10.74-15.828-19.927-26.427-26.71a162.8 162.8 0 0 0 54.125 29.395c-13.849-4.664-26.285-13.567-35.33-25.014 9.61 8.762 21.764 14.415 34.624 16.11-18.513-6.924-35.33-18.512-48.332-33.492 18.796 10.033 37.026 21.198 54.267 33.492-11.871-11.164-24.448-21.48-37.732-31.09 10.457 7.773 21.904 14.132 33.916 19.078-17.665-7.348-31.231-21.904-43.243-36.884S577.181 21.339 561.918 9.75C546.656-1.838 526.023-8.48 508.076-1.98c12.86-2.967 26.709 0 38.439 6.077 11.729 6.077 21.904 14.839 31.514 24.025-15.404-11.73-34.482-18.513-53.843-19.361 25.438 3.391 49.038 18.654 62.746 40.417-11.447-13.708-27.84-23.318-45.364-26.568 17.807 7.49 33.21 20.915 43.244 37.45-20.774-21.622-41.124-42.255-73.203-35.189 38.156 1.272 49.461 30.101 73.344 53.843M188.411 334.503c-9.327 8.762-22.47 13.567-35.047 11.306s-23.6-12.436-25.579-25.014c4.24 9.186 12.012 16.959 21.763 19.926 9.61 2.968 21.198.283 27.699-7.49-10.74 6.925-24.166 9.469-36.743 7.066 13.284-.282 26.285-7.348 33.917-18.371-4.523 5.653-12.86 7.066-20.068 5.511-7.066-1.696-13.284-5.935-19.219-10.033 12.86 10.033 33.916 6.783 43.244-6.642-8.48 5.652-20.209 5.794-28.83.565 7.773 2.544 16.252-1.837 22.329-7.349 6.077-5.511 10.881-12.436 17.806-16.958-9.61 6.783-21.48 10.034-33.069 9.327 5.37 2.685 11.589-1.555 15.828-5.935 20.067-20.633 33.634-48.19 57.8-63.736-18.654 16.959-37.874 35.048-46.353 58.789 8.479-11.588 19.078-21.48 31.232-29.253-19.079 11.164-22.47 38.863-40.7 51.299 11.87-6.218 21.763-16.11 28.122-27.981a143.9 143.9 0 0 1-29.818 41.407c10.457-5.512 18.795-15.263 22.47-26.427-5.229 15.969-14.274 30.525-26.286 42.396 23.883-8.621 28.405-43.103 50.734-55.256-17.806 9.609-16.817 39.145-31.232 52.853m-.848-89.314c-9.044 12.012-21.339 21.622-35.188 27.416 15.262-8.055 27.274-22.046 32.927-38.297-6.077 11.447-18.23 18.371-29.677 24.448 15.121-20.067 30.101-39.993 45.222-60.061-17.806 12.295-33.493 27.84-45.787 45.646 7.49-14.414 16.11-28.122 25.861-40.982-6.783 8.338-15.121 15.262-24.448 20.491 16.676-12.577 28.829-30.242 43.95-44.798s35.613-26.286 56.245-22.187c-11.305-3.675-23.176-7.349-35.047-5.653-18.23 2.544-32.079 17.241-43.102 31.938s-21.34 30.949-37.591 39.711c14.132-13.991 21.339-33.352 32.503-49.886s29.536-31.232 49.038-27.557c-20.774-1.696-42.113 4.098-59.071 16.11 23.176-20.067 54.549-36.884 83.378-26.851 22.894 7.914 41.407 31.797 65.431 28.406-24.59 2.261-49.886-5.088-69.529-20.209 8.479 11.164 21.339 18.937 35.188 21.339-26.568-8.055-57.234-.424-76.878 19.078 15.404-12.012 35.472-18.089 54.832-16.393-17.241.424-33.916 9.186-44.233 22.894 13.426-10.034 29.96-15.828 46.777-16.252-26.144 2.827-50.734 18.089-64.724 40.418 15.686-19.22 41.124-29.96 65.713-27.699-27.557-.565-54.973 13.567-70.377 36.46 14.132-14.414 35.472-21.197 55.256-17.806-27.557-4.805-41.972 20.633-56.669 40.276m136.091-110.088c16.11-3.109 32.786-3.957 49.179-2.402a601 601 0 0 0-44.94-8.903c21.763 4.239 44.374 3.392 65.714-2.261-25.579-.848-51.158-3.109-76.454-6.925 29.677-1.272 59.637-2.544 88.607 3.674-15.121-6.5-31.09-11.305-47.201-14.132 19.503 4.947 39.852 6.925 59.92 5.653a1240 1240 0 0 0-111.36-17.382c-17.382-1.978-35.047-3.533-52.429-.848-17.241 2.685-34.482 10.175-45.647 23.742 14.274-13.567 34.058-20.068 53.702-21.34s39.145 2.12 58.365 5.936c-19.502-.99-39.146 3.109-56.669 11.729 21.339-5.087 43.243-7.207 65.148-6.5-15.263 6.076-31.656 9.327-48.049 9.892 16.676 1.131 33.493 1.696 50.169 1.837-14.98 2.685-30.384 3.816-45.646 3.392 12.718 2.261 25.437 4.381 38.156 6.642-13.708 2.685-27.981 3.392-41.972 1.978a155 155 0 0 0 52.853 5.371c-22.611 5.087-41.406-.142-63.311-3.675 27.416 15.263 71.225 20.915 99.631 6.784-13.991-.142-34.341-4.947-47.766-2.262"/><path d="M311.359 247.309c35.612-.283 68.964-26.992 103.87-19.926-24.731-5.653-50.875-5.794-75.606-.141 43.809-7.632 87.335-30.949 130.296-19.361-47.766-24.59-110.936 14.697-157.854-11.306 13.708 10.599 31.515 15.687 48.614 13.85-20.491 5.087-42.82 2.685-61.756-6.642 15.121 10.033 33.916 14.414 51.864 12.294-21.622 7.49-46.777 3.392-65.007-10.457 18.654 13.849 42.254 20.915 65.572 19.643-25.437 9.893-56.104 4.098-76.312-14.132 12.577 19.926 39.852 23.318 63.452 24.59-13.425 5.087-28.688 2.261-42.254-2.403-13.567-4.663-26.71-11.164-40.983-13.566s-30.384.282-39.852 11.305c10.175-11.871 30.384-12.153 42.961-5.087 18.089 10.175 30.666 21.48 52.995 21.339m162.8-79.139c-18.23-3.25-37.167-2.826-55.256 1.413 18.23-11.447 40.417-16.393 61.757-13.708-15.122-3.674-31.373-3.25-46.353 1.272 24.448-14.556 54.125-20.208 82.106-15.686-35.188-15.828-76.453-3.957-111.642 11.871 17.665-4.523 35.189-9.045 52.854-13.567-32.363 14.556-66.845 29.536-102.033 25.579 20.491 6.642 42.961 6.501 63.311-.142-24.448 17.948-58.082 14.839-88.183 10.741 24.165 3.25 43.385 15.121 68.54 10.175 25.296-5.088 48.755-18.23 74.899-17.948"/></g><path fill="#3F2711" d="M621.979 591.422c-4.239-.283-8.479-.424-12.719-.707 20.916-4.663 42.961-4.381 63.735.707a23.17 23.17 0 0 0-13.142.848c16.534.424 33.351 5.511 45.505 17.241-2.827-1.413-5.653-2.685-8.48-4.099 5.936 5.512 12.719 9.893 20.068 13.143l-5.936-1.696c4.381 2.685 8.904 5.512 13.284 8.197-.282-3.25-.565-6.642-.706-9.892 1.413 1.837 2.402 3.956 2.826 6.076-1.837-7.772-.565-16.251-2.826-24.307-2.261-8.338-5.936-16.393-10.74-23.6-9.469-14.273-21.622-26.003-38.863-29.818 3.957 1.13 7.348 3.674 9.609 7.066-23.883-11.447-52.288-5.512-78.008.989-12.577 3.25-26.003 7.066-34.058 17.099 2.261-2.402 3.816-5.37 4.381-8.479-4.805 5.512-9.61 11.023-14.273 16.676a403 403 0 0 0 5.37-11.164c-8.055 9.186-14.839 19.502-20.35 30.525 3.533-4.24 7.631-7.914 12.012-11.165-4.522 5.229-8.762 10.882-12.436 16.817 9.751-4.804 19.926-5.37 30.666-6.783 14.697-1.696 30.525-4.522 45.081-3.674m-214.381 10.457c-21.905-5.935-43.951-12.012-65.855-17.947-10.882-2.968-21.763-5.936-32.928-6.925-18.088-1.696-36.319 1.696-54.266 5.088 2.402.424 4.805.848 7.207 1.413-4.805.565-9.751.989-14.556 1.554 1.837 1.414 4.381 1.696 6.501.99-12.436 6.218-25.862 10.457-39.57 12.436 3.957.282 8.056.565 12.013.848-6.219 1.13-12.578 1.978-18.937 2.261 3.674.706 7.49 1.413 11.164 1.978-8.903.848-17.665 3.533-25.579 7.632 2.261-2.262 4.522-4.664 6.925-6.925-3.251 1.837-6.784 2.968-10.458 3.674.565-2.967.989-6.077 1.555-9.044-2.12 1.837-4.381 3.533-6.501 5.37 9.327-22.894 26.851-42.255 48.614-53.984-3.957.848-7.914 2.402-11.164 4.805 13.99-14.697 34.482-22.894 54.69-22.187-4.239 1.695-8.479 3.391-12.86 5.087 26.003-1.413 52.288.989 77.585 6.925 21.339 5.087 47.907 9.892 63.169 26.992-1.978-3.675-4.098-7.208-6.076-10.882a91.6 91.6 0 0 1 23.176 30.242c-2.826-4.522-6.077-8.761-10.034-12.436 3.109 5.371 6.642 10.599 10.741 15.263-4.947-2.685-9.469-5.936-13.426-9.751 4.381 4.522 8.762 9.186 13.143 13.708-6.218-2.12-12.012-5.37-16.958-9.469 3.109 4.099 6.642 7.632 10.599 10.882-4.947-3.674-10.175-6.925-15.546-9.892l15.263 12.294c-6.077-3.533-12.295-6.783-18.513-9.892 4.381 2.12 8.338 4.946 11.588 8.479"/><mask id="f" width="106" height="28" x="550" y="627" maskUnits="userSpaceOnUse" style="mask-type:luminance"><path fill="#fff" d="M577.746 654.168s17.382.848 37.732-.848c20.35-1.837 25.721-6.36 39.994-10.317 0 0-34.341-20.774-65.714-13.566-29.677 9.609-38.862 24.307-38.862 24.307s19.502-.142 26.85.424"/></mask><g mask="url(#f)"><path fill="#fff" d="M577.746 654.168s17.382.848 37.732-.848c20.35-1.837 25.721-6.36 39.994-10.317 0 0-34.341-20.774-65.714-13.566-29.677 9.609-38.862 24.307-38.862 24.307s19.502-.142 26.85.424"/></g><mask id="g" width="106" height="28" x="550" y="627" maskUnits="userSpaceOnUse" style="mask-type:luminance"><path fill="#fff" d="M577.746 654.168s17.382.848 37.732-.848c20.35-1.837 25.721-6.36 39.994-10.317 0 0-34.341-20.774-65.714-13.566-29.677 9.609-38.862 24.307-38.862 24.307s19.502-.142 26.85.424"/></mask><g mask="url(#g)"><path fill="#291205" d="M599.368 666.604c16 0 28.97-12.971 28.97-28.971s-12.97-28.97-28.97-28.97-28.971 12.97-28.971 28.97 12.971 28.971 28.971 28.971"/><path fill="#000" d="M599.368 649.787c6.712 0 12.153-5.441 12.153-12.154 0-6.712-5.441-12.153-12.153-12.153s-12.154 5.441-12.154 12.153 5.442 12.154 12.154 12.154"/><path fill="#fff" d="M588.345 639.047a6.36 6.36 0 0 0 0-12.719 6.359 6.359 0 1 0 0 12.719m23.036 3.25a3.11 3.11 0 1 0 0-6.218 3.11 3.11 0 0 0 0 6.218"/></g><mask id="h" width="106" height="28" x="550" y="627" maskUnits="userSpaceOnUse" style="mask-type:luminance"><path fill="#fff" d="M577.746 654.168s17.382.848 37.732-.848c20.35-1.837 25.721-6.36 39.994-10.317 0 0-34.341-20.774-65.714-13.566-29.677 9.609-38.862 24.307-38.862 24.307s19.502-.142 26.85.424"/></mask><g fill="#FBC1B4" mask="url(#h)"><path d="M632.861 618.273s15.686 23.6-3.957 47.483c69.246-32.08 34.34-35.33 3.957-47.483m-63.594 8.903s-12.436 23.176 13.143 35.753c-48.049 7.49-72.356-5.652-13.143-35.753"/></g><path fill="#000" d="M577.746 654.168s-12.295-1.555-16.11-1.555c-3.816 0-5.37-3.815 5.935-11.305s28.405-13.708 48.19-10.034 33.917 13.001 33.917 13.001l-12.436 6.218s26.285-5.935 35.895-4.239c-12.86-8.621-41.831-19.22-57.235-21.481-15.545-2.12-29.394.565-44.939 9.045-15.545 8.62-24.166 13.99-28.971 17.099s-2.119 7.49 9.61 5.936c11.73-1.555 26.144-2.685 26.144-2.685"/><mask id="i" width="116" height="30" x="267" y="621" maskUnits="userSpaceOnUse" style="mask-type:luminance"><path fill="#fff" d="M288.465 642.862s17.665 5.37 41.265 7.207c23.601 1.838 40.276-3.25 52.43-2.119-24.307-15.404-72.78-45.647-114.893-8.904 0 0 4.664-2.543 21.198 3.816"/></mask><g mask="url(#i)"><path fill="#fff" d="M288.465 642.862s17.665 5.37 41.265 7.207c23.601 1.838 40.276-3.25 52.43-2.119-24.307-15.404-72.78-45.647-114.893-8.904 0 0 4.664-2.543 21.198 3.816"/></g><mask id="j" width="116" height="30" x="267" y="621" maskUnits="userSpaceOnUse" style="mask-type:luminance"><path fill="#fff" d="M288.465 642.862s17.665 5.37 41.265 7.207c23.601 1.838 40.276-3.25 52.43-2.119-24.307-15.404-72.78-45.647-114.893-8.904 0 0 4.664-2.543 21.198 3.816"/></mask><g mask="url(#j)"><path fill="#291205" d="M318.283 661.234c16 0 28.971-12.971 28.971-28.971s-12.971-28.97-28.971-28.97-28.97 12.97-28.97 28.97 12.971 28.971 28.97 28.971"/><path fill="#000" d="M318.283 644.417c6.713 0 12.154-5.442 12.154-12.154s-5.441-12.153-12.154-12.153c-6.712 0-12.153 5.441-12.153 12.153s5.441 12.154 12.153 12.154"/><path fill="#fff" d="M307.402 633.676a6.359 6.359 0 1 0 0-12.718 6.359 6.359 0 0 0 0 12.718m22.894 3.251a3.11 3.11 0 1 0 0-6.218 3.11 3.11 0 0 0 0 6.218"/></g><mask id="k" width="116" height="30" x="267" y="621" maskUnits="userSpaceOnUse" style="mask-type:luminance"><path fill="#fff" d="M288.465 642.862s17.665 5.37 41.265 7.207c23.601 1.838 40.276-3.25 52.43-2.119-24.307-15.404-72.78-45.647-114.893-8.904 0 0 4.664-2.543 21.198 3.816"/></mask><g fill="#FBC1B4" mask="url(#k)"><path d="M356.581 623.643s12.436 21.056-12.86 35.33c69.529.424 32.786-17.524 12.86-35.33m-65.431-5.653s-13.567 15.404 1.131 32.503c-51.441.283-47.484-16.534-1.131-32.503"/></g><path fill="#000" d="M351.776 650.493s4.805-1.13 11.306-2.685c6.359-1.554 4.24-4.805-5.37-10.175s-35.33-16.11-55.68-11.305-27.275 11.305-27.275 11.305l13.991 5.37s-29.394-4.239-36.46-3.815c0 0 21.48-10.175 35.895-16.111 14.414-5.935 39.145-8.62 69.67 6.925 31.091 15.545 41.831 17.1 42.255 20.35.282 3.25-30.667-2.12-48.332.141"/><path fill="#89442B" d="M538.601 641.873s17.664-11.73 30.525-18.796c12.86-6.924 36.46-14.414 64.865-6.359s43.951 17.665 43.385 26.709c2.685-6.924-6.924-23.035-41.83-30.525-34.765-7.49-76.595-3.674-96.945 28.971m-147.82-8.621s-36.885-26.285-79.846-26.285-53.56 15.545-58.365 23.6-13.99 11.306-13.99 11.306 10.175-23.6 33.775-32.645c23.742-9.186 94.967-13.425 118.426 24.024"/><path fill="#CE6A42" d="M241.971 694.302s-15.545 2.12-30.525 15.546c0 0 14.98-16.535 30.525-15.546m0-44.374s5.37 5.936 21.481 11.306c-.142-.142-14.556-1.131-21.481-11.306M555.7 676.072s34.765 13.426 64.866 12.86c0 0-36.461 2.261-64.866-12.86m96.946 5.936s22.469-6.925 29.394-25.155c.141 0-3.674 22.47-29.394 25.155m-8.056 12.86s19.785-2.685 32.645 1.554c.141 0-10.599-8.479-32.645-1.554m59.496-52.006s-6.359-1.13-10.175 11.306c0 0 3.25-17.1 10.175-11.306m-130.721 22.046s28.405 9.61 56.811 0c0 0-25.72 11.73-56.811 0m-287.019-11.871s38.015 21.481 78.715 6.359c0 .142-34.765 12.437-78.715-6.359m125.915 14.556s-6.924 13.991-44.939 27.84c0 0 34.764-16.676 44.939-27.84m-155.31 23.035s6.925-2.12 20.915 6.359c13.991 8.621 56.246 18.796 78.15 3.816 0 0-26.709 11.73-53.56 2.685-26.709-9.186-34.765-17.241-45.505-12.86"/><path fill="#562A1D" d="M512.88 857.102s9.61-9.327 19.926-13.99c10.317-4.664 16.111-11.447 16.111-11.447s-11.73-3.109-36.037 25.437m-52.146 6.077s-13.991-10.316-23.601-13.991c-9.609-3.533-22.187-13.566-22.187-13.566s20.492.424 45.788 27.557"/><path fill="#B25434" d="M541.286 628.448s-11.306 7.489-16.535 18.23c-5.37 10.74-4.239 26.285-4.239 26.285s-3.816-12.86-1.131-23.035 10.74-20.35 21.905-21.48m-126.905 5.37s16.534 8.055 15.545 30.525c0 0 4.24-30.525-15.545-30.525m133.123 142.45s2.402 6.924 3.25 21.48-.565 31.091-3.533 38.58c0 0 3.109-2.685 4.099-18.795.989-15.686-.283-31.09-3.816-41.265m-131.569 5.37s-3.674 4.098-3.815 20.208c-.142 16.111 1.554 33.917 9.185 40.276 0 0-9.468-1.413-10.457-28.263-.989-26.71 2.968-31.091 5.087-32.221"/><path fill="#B25434" d="M548.917 831.806s-10.034-3.25-41.831 32.08c.142 0 25.438-36.743 41.831-32.08m-135.949 3.816s16.11 1.272 34.623 12.012 22.47 15.828 38.863 15.545c13.567 0 20.35-6.077 20.35-6.077s-9.61 5.088-21.763 4.381-19.926-5.794-37.167-15.828c-17.1-10.033-30.243-10.457-34.906-10.033"/><path fill="#CE6A42" d="M308.391 856.537s-5.935 8.621-13.99 16.534c-8.055 7.914-9.045 11.73-8.055 18.231 0 0-4.24-8.056 5.37-18.231 9.609-10.033 16.675-16.534 16.675-16.534m-64.3-180.465s-18.796.566-32.08 10.741c0 0 12.86-13.426 32.08-10.741M372.55 781.638c1.696-.989-41.265 27.274-64.3 56.81.141 0 20.915-32.221 64.3-56.81m186.966-7.49s36.461 27.84 54.125 50.875 16.111 34.341 2.686 63.735c0 0 6.924-9.61 12.294-27.84s-18.795-49.886-69.105-86.77m115.599 55.68s-11.305 12.86-31.09 55.68-43.385 86.204-56.245 106.554c0 0 23.035-30.525 40.7-69.67s41.83-85.64 46.635-92.564M395.162 1012.41s66.42 32.08 114.044 6.36c0 .14-40.7 30.1-114.044-6.36"/><path fill="#C25C3D" d="M304.717 892.856s35.754 38.58 50.733 57.8c14.98 19.219 49.321 62.184 108.534 58.504 59.213-3.67 63.594-25.718 87.759-65.711 24.166-39.994 41.407-57.094 41.407-57.094s-10.74-.706-27.84-2.119-35.047 2.826-54.973 10.74-32.08 11.447-56.387 5.653c-24.165-5.653-94.967-30.667-149.233-7.773"/><path fill="#DD6D4C" d="M341.884 928.61s25.013 21.481 47.907 32.786c22.894 11.447 70.66 31.373 120.687 10.034-27.84 12.86-65.714 30.67-101.326 15.686-35.613-14.98-52.288-46.494-67.268-58.506"/><path fill="#703226" d="M584.671 890.03s-24.307 27.133-36.461 43.526-42.113 44.94-83.52 45.646-90.02-26.426-114.892-49.32c-25.014-22.894-32.08-30.666-42.113-35.754 25.72-4.24 65.713-6.359 110.653 8.621 44.939 14.979 68.54 17.099 100.619 2.826 32.221-14.132 52.147-16.252 65.714-15.545"/><path fill="#CF694C" d="M350.646 913.913s-5.37-18.796 6.359-21.481c11.73-2.685 61.616 12.86 85.64 19.22 24.165 6.359 50.31 6.924 72.779-2.12 22.47-9.045 25.72-6.359 19.785 11.729-25.437 22.046-119.698 33.352-184.563-7.348"/><path fill="#FEFEFE" d="M463.278 933.839s2.543-10.316 17.099-12.86c14.697-2.544 17.806 5.653 17.806 11.023 0 0 2.12-10.034 10.741-13.143 8.62-3.25 10.033 8.621 10.033 8.621s3.533-10.317 12.861-13.991c9.327-3.533 5.37 12.436 4.663 19.926s-3.533 12.436-9.61 14.273c-6.076 1.837-7.49-2.12-7.49-2.12s-3.25 8.904-11.729 12.437c-8.621 3.532-11.023-.707-11.023-.707s-.424 10.316-17.524 11.447c-17.099 1.13-17.806-1.837-18.23-4.946-1.837 7.207-11.729 8.196-23.883 4.946s-14.697-6.36-14.273-11.73c-2.544 6.784-28.971 0-29.253-14.273 0 0-1.131 7.914-10.74 5.37s-12.861-10.316-13.567-18.23c0 0-12.86 4.664-17.1-6.359-4.239-11.023-3.957-22.894 2.12-26.71 6.077-3.957 13.143 12.154 13.143 12.154s.706-6.36 10.033-8.197 17.524 20.774 17.524 20.774 2.544-12.436 13.143-11.023 16.11 13.143 16.817 17.806c0 0 4.663-13.566 19.643-11.022 14.839 2.261 18.796 16.534 18.796 16.534"/><path fill="#B25434" d="M40.026 546.482s-6.925 26.286-17.1 44.94-13.99 34.341-13.99 34.341 2.685-17.665 1.554-46.071c-.99-28.405-6.36-86.205 29.536-33.21m30.524 53.136s6.926 17.665 15.546 24.166-8.62 26.285-8.62 26.285.565-11.305-5.936-19.219c-6.36-8.055-17.665 11.306-19.785 21.481s5.936 9.609 18.796 10.74c12.86 1.13 9.61 15.545 14.98 25.155 5.37 9.609-4.24 17.099-13.426 8.62-9.044-8.62-16.11-20.915-28.405-21.904s-35.33-10.175-20.35-43.385c15.121-33.634 36.46-44.799 47.2-31.939m649.787-17.382s2.827 53.56 3.533 74.193c.707 20.774-7.913 44.233-7.913 44.233s-.566-93.412 4.38-118.426"/></svg>